<?xml version="1.0" encoding="UTF-8" standalone="no"?>
<!-- Created with Inkscape (http://www.inkscape.org/) -->

<svg
   version="1.1"
   id="svg101"
   xml:space="preserve"
   width="489.33334"
   height="98.666664"
   viewBox="0 0 489.33334 98.666664"
   xmlns="http://www.w3.org/2000/svg"
   xmlns:svg="http://www.w3.org/2000/svg"><defs
     id="defs105"><clipPath
       clipPathUnits="userSpaceOnUse"
       id="clipPath117"><path
         d="M 0,0 H 3667.36 V 734.07 H 0 Z"
         id="path115" /></clipPath></defs><g
     id="g107"
     transform="matrix(1.3333333,0,0,-1.3333333,0,98.666667)"><g
       id="g109"
       transform="scale(0.1)"><g
         id="g111"><g
           id="g113"
           clip-path="url(#clipPath117)"><path
             d="M 451.738,537.445 309.707,340.824 167.664,537.445 309.707,734.07 451.738,537.445"
             style="fill:#1e5bb2;fill-opacity:1;fill-rule:nonzero;stroke:none"
             id="path119" /><path
             d="M 616.672,310.77 474.629,114.148 332.59,310.77 474.629,507.395 616.672,310.77"
             style="fill:#1e5bb2;fill-opacity:1;fill-rule:nonzero;stroke:none"
             id="path121" /><path
             d="M 284.082,310.77 142.039,114.148 0,310.77 142.039,507.395 284.082,310.77"
             style="fill:#1e5bb2;fill-opacity:1;fill-rule:nonzero;stroke:none"
             id="path123" /><path
             d="m 335.352,84.1563 60.8,84.1677 L 456.941,84.1563 396.152,0.00390625 335.352,84.1563"
             style="fill:#1e5bb2;fill-opacity:1;fill-rule:nonzero;stroke:none"
             id="path125" /><path
             d="m 248.801,198.309 60.797,84.16 60.793,-84.16 -60.793,-84.161 -60.797,84.161"
             style="fill:#1e5bb2;fill-opacity:1;fill-rule:nonzero;stroke:none"
             id="path127" /><path
             d="M 162.488,84.1563 223.281,168.324 284.082,84.1563 223.281,0.00390625 162.488,84.1563"
             style="fill:#1e5bb2;fill-opacity:1;fill-rule:nonzero;stroke:none"
             id="path129" /><path
             d="m 1209.41,115.129 -0.52,244.195 -121.04,-202.09 h -30.53 L 936.289,356.164 V 115.129 h -65.254 v 368.394 h 56.309 l 146.306,-244.195 143.67,244.195 h 56.31 l 0.53,-368.394 h -64.75"
             style="fill:#1e5bb2;fill-opacity:1;fill-rule:nonzero;stroke:none"
             id="path131" /><path
             d="m 1521.04,203.016 v 32.632 h -67.9 c -44.72,0 -56.83,-16.843 -56.83,-37.371 0,-23.679 20,-38.937 53.69,-38.937 32.09,0 59.98,14.73 71.04,43.676 z m 65.78,76.839 V 115.129 h -62.09 v 34.211 c -15.8,-24.211 -46.31,-37.891 -88.42,-37.891 -64.2,0 -104.73,35.258 -104.73,84.203 0,46.836 31.58,83.676 116.84,83.676 h 72.62 v 4.207 c 0,38.418 -23.15,61.051 -70,61.051 -31.57,0 -64.2,-10.527 -85.26,-27.895 L 1340,364.582 c 30,23.16 73.67,34.738 118.95,34.738 81.03,0 127.87,-38.418 127.87,-119.465"
             style="fill:#1e5bb2;fill-opacity:1;fill-rule:nonzero;stroke:none"
             id="path133" /><path
             d="m 1824.22,130.395 c -15.8,-12.633 -39.47,-18.946 -63.17,-18.946 -61.56,0 -96.83,32.625 -96.83,94.727 V 341.43 h -46.31 v 52.625 h 46.31 v 64.203 H 1730 v -64.203 h 75.27 V 341.43 H 1730 V 207.75 c 0,-27.363 13.69,-42.098 38.95,-42.098 13.69,0 26.85,3.68 36.85,11.578 l 18.42,-46.835"
             style="fill:#1e5bb2;fill-opacity:1;fill-rule:nonzero;stroke:none"
             id="path135" /><path
             d="M 2139.47,276.168 V 115.129 h -65.78 V 267.75 c 0,49.996 -24.73,74.203 -66.83,74.203 -46.84,0 -78.42,-28.418 -78.42,-84.73 V 115.129 h -65.78 v 390.5 h 65.78 V 363.531 c 21.58,23.157 54.74,35.789 93.69,35.789 67.36,0 117.34,-38.418 117.34,-123.152"
             style="fill:#1e5bb2;fill-opacity:1;fill-rule:nonzero;stroke:none"
             id="path137" /><path
             d="m 2259.79,579.387 h 33.18 V 400.691 h -33.18 v 178.696"
             style="fill:#1e5bb2;fill-opacity:1;fill-rule:nonzero;stroke:none"
             id="path139" /><path
             d="M 2507.66,579.387 V 400.691 h -27.31 l -98.55,121 v -121 h -32.93 v 178.696 h 27.32 l 98.54,-121 v 121 h 32.93"
             style="fill:#1e5bb2;fill-opacity:1;fill-rule:nonzero;stroke:none"
             id="path141" /><path
             d="m 2639.88,428.773 c 39.83,0 65.63,24.25 65.63,61.262 0,37.02 -25.8,61.27 -65.63,61.27 h -43.4 V 428.773 Z m -76.58,150.614 h 78.13 c 57.94,0 97.52,-35.739 97.52,-89.352 0,-53.605 -39.58,-89.344 -97.52,-89.344 h -78.13 v 178.696"
             style="fill:#1e5bb2;fill-opacity:1;fill-rule:nonzero;stroke:none"
             id="path143" /><path
             d="m 2780.29,478.551 v 100.836 h 33.19 v -99.559 c 0,-36.758 16.6,-52.59 45.45,-52.59 28.84,0 45.17,15.832 45.17,52.59 v 99.559 h 32.68 V 478.551 c 0,-52.078 -29.36,-80.414 -78.11,-80.414 -49.02,0 -78.38,28.336 -78.38,80.414"
             style="fill:#1e5bb2;fill-opacity:1;fill-rule:nonzero;stroke:none"
             id="path145" /><path
             d="m 2975.82,419.582 11.48,25.781 c 14.3,-11.484 37.04,-19.652 58.99,-19.652 27.81,0 39.57,9.953 39.57,23.227 0,38.55 -106.21,13.277 -106.21,79.648 0,28.848 22.99,53.355 71.99,53.355 21.45,0 43.91,-5.617 59.47,-15.832 l -10.45,-25.781 c -16.09,9.445 -33.71,14.039 -49.27,14.039 -27.58,0 -38.81,-10.719 -38.81,-24.246 0,-38.039 105.95,-13.277 105.95,-78.883 0,-28.593 -23.24,-53.101 -72.24,-53.101 -27.83,0 -55.67,8.683 -70.47,21.445"
             style="fill:#1e5bb2;fill-opacity:1;fill-rule:nonzero;stroke:none"
             id="path147" /><path
             d="m 3192.81,551.305 h -59.22 v 28.082 h 151.64 V 551.305 H 3226 V 400.691 h -33.19 v 150.614"
             style="fill:#1e5bb2;fill-opacity:1;fill-rule:nonzero;stroke:none"
             id="path149" /><path
             d="m 3389.88,551.305 h -38.81 v -71.227 h 38.81 c 29.1,0 44.16,13.277 44.16,35.746 0,22.465 -15.06,35.481 -44.16,35.481 z m 44.94,-150.614 -36.5,52.332 c -2.3,-0.257 -4.61,-0.257 -6.89,-0.257 h -40.36 v -52.075 h -33.18 v 178.696 h 73.54 c 46.97,0 76.07,-24 76.07,-63.563 0,-27.062 -13.79,-46.972 -38.05,-56.418 l 41.1,-58.715 h -35.73"
             style="fill:#1e5bb2;fill-opacity:1;fill-rule:nonzero;stroke:none"
             id="path151" /><path
             d="m 3597.42,463.742 v -63.051 h -33.18 v 62.543 l -70.2,116.153 h 35.47 l 52.35,-87.051 52.83,87.051 h 32.67 l -69.94,-115.645"
             style="fill:#1e5bb2;fill-opacity:1;fill-rule:nonzero;stroke:none"
             id="path153" /></g></g></g></g></svg>
