<?xml version="1.0" encoding="UTF-8" standalone="no"?>
<svg
   xmlns:dc="http://purl.org/dc/elements/1.1/"
   xmlns:cc="http://creativecommons.org/ns#"
   xmlns:rdf="http://www.w3.org/1999/02/22-rdf-syntax-ns#"
   xmlns:svg="http://www.w3.org/2000/svg"
   xmlns="http://www.w3.org/2000/svg"
   xmlns:sodipodi="http://sodipodi.sourceforge.net/DTD/sodipodi-0.dtd"
   xmlns:inkscape="http://www.inkscape.org/namespaces/inkscape"
   viewBox="0 0 3839.9999 966.32971"
   version="1.1"
   id="svg969"
   sodipodi:docname="25horizfull.svg"
   width="3840"
   height="966.32971"
   inkscape:version="1.0.2 (e86c8708, 2021-01-15)">
  <metadata
     id="metadata973">
    <rdf:RDF>
      <cc:Work
         rdf:about="">
        <dc:format>image/svg+xml</dc:format>
        <dc:type
           rdf:resource="http://purl.org/dc/dcmitype/StillImage" />
      </cc:Work>
    </rdf:RDF>
  </metadata>
  <sodipodi:namedview
     pagecolor="#ffffff"
     bordercolor="#666666"
     borderopacity="1"
     objecttolerance="10"
     gridtolerance="10"
     guidetolerance="10"
     inkscape:pageopacity="0"
     inkscape:pageshadow="2"
     inkscape:window-width="1623"
     inkscape:window-height="1047"
     id="namedview971"
     showgrid="false"
     inkscape:zoom="0.82305707"
     inkscape:cx="1920"
     inkscape:cy="483.16508"
     inkscape:window-x="0"
     inkscape:window-y="25"
     inkscape:window-maximized="0"
     inkscape:current-layer="svg969" />
  <defs
     id="defs835">
    <style
       id="style833">.cls-1{fill:#005cb9;}.cls-2{fill:#fff;}.cls-3{fill:#9d9d9c;}</style>
  </defs>
  <g
     id="Layer_2"
     data-name="Layer 2"
     transform="scale(5.5061658)">
    <g
       id="Layer_1-2"
       data-name="Layer 1">
      <path
         class="cls-1"
         d="m 157.16,135.34 a 88.71,88.71 0 0 1 -148.49,0 h 29.86 a 65.76,65.76 0 0 0 88.84,0 z"
         id="path837" />
      <path
         class="cls-1"
         d="m 269.76,47.56 a 4.14,4.14 0 0 1 0.56,-0.07 c 0.54,0 1.45,0 2.7,0.09 h 1.36 c 0.35,0 1.1,0 2.24,-0.1 l 4.11,-0.24 c 1.08,-0.1 2.34,-0.15 3.77,-0.15 a 14.1,14.1 0 0 1 6,1.08 7.52,7.52 0 0 1 3.5,3.39 9.7,9.7 0 0 1 1.22,4.57 9.12,9.12 0 0 1 -2.66,6.54 9.48,9.48 0 0 1 -7.15,2.75 6.26,6.26 0 0 1 -4,-1.24 1.25,1.25 0 0 1 -0.55,-0.65 0.55,0.55 0 0 1 0.26,-0.24 2.08,2.08 0 0 1 0.71,0.14 6.1,6.1 0 0 0 2.07,0.29 7.35,7.35 0 0 0 3.62,-0.94 6.14,6.14 0 0 0 2.57,-2.67 8.09,8.09 0 0 0 0.87,-3.67 7.91,7.91 0 0 0 -0.92,-3.66 7.76,7.76 0 0 0 -2.44,-2.78 7.52,7.52 0 0 0 -2.59,-1 12.41,12.41 0 0 0 -2.71,-0.41 c -2,0 -3.18,0.14 -3.55,0.43 v 0.34 L 278.8,52 v 0.48 c 0,0.43 0,1.1 0,2 0,3.29 0,5.33 0.14,6.14 V 62 l 0.32,11 c 0,0.16 0,0.46 -0.06,0.89 a 10.16,10.16 0 0 0 -0.07,1.14 6,6 0 0 0 0.2,1.76 c 0.38,0.11 1.51,0.38 3.38,0.8 l 1.43,0.36 a 0.65,0.65 0 0 1 0.33,0.31 0.79,0.79 0 0 1 -0.25,0.48 1.21,1.21 0 0 1 -0.61,0.1 c -0.2,0 -0.65,0 -1.36,-0.12 -1.38,-0.14 -2.47,-0.21 -3.26,-0.21 l -4.25,0.17 -2.54,-0.08 -1.4,0.05 v -0.63 l 3.15,-0.6 a 2,2 0 0 0 0.94,-0.44 2.46,2.46 0 0 0 0.24,-1.32 c 0,-0.15 0,-0.46 0,-0.94 0,-0.48 0,-0.81 0,-1.4 q 0,-2.85 -0.24,-12.15 c -0.07,-2.9 -0.1,-5.84 -0.1,-8.84 V 52 c 0,-1.15 -0.18,-1.89 -0.53,-2.19 -0.6,-0.53 -2.09,-1 -4.47,-1.31 a 0.83,0.83 0 0 1 0,-0.89 z"
         id="path839" />
      <path
         class="cls-1"
         d="m 315.65,75.11 a 1.41,1.41 0 0 1 0.14,0.45 3.09,3.09 0 0 1 -0.58,1.29 5.17,5.17 0 0 1 -1.67,1.76 3,3 0 0 1 -1.54,0.39 3.17,3.17 0 0 1 -2.61,-1.06 4.64,4.64 0 0 1 -0.75,-2.25 l -2.7,1.89 a 11.38,11.38 0 0 1 -2.18,1 11.62,11.62 0 0 1 -2.9,0.32 2.51,2.51 0 0 1 -2.66,-2.63 q 0,-1.68 2.05,-4 a 15,15 0 0 1 5.56,-3.8 c 1.64,-0.69 2.65,-1.13 3,-1.32 0,-0.54 0.05,-1.12 0.05,-1.74 0,-2.05 -0.28,-3.44 -0.86,-4.16 a 3,3 0 0 0 -2.46,-1.09 4.61,4.61 0 0 0 -3.12,1.31 5.71,5.71 0 0 0 -1.42,3.1 5,5 0 0 1 -0.56,1.35 3.41,3.41 0 0 1 -1.66,0.68 1.6,1.6 0 0 1 -1,-0.31 0.5,0.5 0 0 1 -0.24,-0.39 8.16,8.16 0 0 1 1.34,-2.84 8.85,8.85 0 0 1 3.38,-3.31 7.81,7.81 0 0 1 3.57,-1.1 9.85,9.85 0 0 1 3.17,0.35 4.47,4.47 0 0 1 2.73,3.38 c 0.06,0.35 0.1,1.61 0.1,3.79 l -0.1,3.83 v 2.8 c 0,0.37 0,0.69 0,1 0,0.46 0,0.81 0,1 a 1.78,1.78 0 0 0 0.46,1.28 1.44,1.44 0 0 0 1.08,0.48 1.91,1.91 0 0 0 1.58,-0.92 l 0.29,-0.39 a 2.46,2.46 0 0 1 0.51,-0.14 z m -7.08,-0.71 c 0.11,-2 0.17,-3.48 0.17,-4.32 0,-0.44 0,-1 -0.08,-1.76 a 16.28,16.28 0 0 0 -3.44,1.76 10.21,10.21 0 0 0 -2.88,2.73 3.7,3.7 0 0 0 -0.78,2.1 2.1,2.1 0 0 0 0.64,1.57 2.22,2.22 0 0 0 1.61,0.63 4.27,4.27 0 0 0 1.82,-0.53 12.07,12.07 0 0 0 2.94,-2.18 z"
         id="path841" />
      <path
         class="cls-1"
         d="m 336.4,74 v 1.57 a 11.63,11.63 0 0 1 -3.72,2.8 10.86,10.86 0 0 1 -4.33,0.8 8.79,8.79 0 0 1 -4.88,-1.41 9.13,9.13 0 0 1 -3.35,-4 12.29,12.29 0 0 1 -1.12,-5.11 10.06,10.06 0 0 1 1.41,-5.15 9.15,9.15 0 0 1 3.75,-3.63 12.73,12.73 0 0 1 5.86,-1.2 9.46,9.46 0 0 1 5.15,1.16 2.06,2.06 0 0 1 1,1.74 1.71,1.71 0 0 1 -0.51,1.28 1.76,1.76 0 0 1 -1.31,0.51 4,4 0 0 1 -2.65,-1.5 6.16,6.16 0 0 0 -1.62,-1.26 3.63,3.63 0 0 0 -1.62,-0.35 4.4,4.4 0 0 0 -3.61,1.75 9.87,9.87 0 0 0 -2,6.31 9.14,9.14 0 0 0 2,6.23 6.11,6.11 0 0 0 4.74,2.32 8.54,8.54 0 0 0 3.34,-0.62 13.79,13.79 0 0 0 3.47,-2.24 z"
         id="path843" />
      <path
         class="cls-1"
         d="m 340.1,61.24 v -0.72 a 16.6,16.6 0 0 0 1.69,-0.53 7.86,7.86 0 0 0 1.83,-1.19 8.19,8.19 0 0 0 1.6,-1.79 2.33,2.33 0 0 1 0.46,0 h 0.29 c 0.07,0.78 0.1,1.34 0.1,1.69 0,0.09 0,0.45 0,1.09 V 61 68 L 346,75.37 a 1.86,1.86 0 0 0 0.29,1.25 4.8,4.8 0 0 0 1.86,0.78 14.42,14.42 0 0 1 1.45,0.46 0.75,0.75 0 0 1 0.08,0.29 0.76,0.76 0 0 1 -0.12,0.36 c -0.63,0 -1.44,-0.05 -2.42,-0.12 -1.34,-0.11 -2.22,-0.17 -2.66,-0.17 l -3.86,0.12 q -0.74,0 -1.41,0.12 a 1.47,1.47 0 0 1 -0.38,-0.07 0.53,0.53 0 0 1 -0.12,-0.29 c 0,-0.22 0.15,-0.4 0.46,-0.53 0.06,0 0.88,-0.22 2.46,-0.56 a 1.55,1.55 0 0 0 1,-0.48 2.57,2.57 0 0 0 0.41,-1.61 q 0,-1.86 0,-10.19 A 8.38,8.38 0 0 0 342.9,62.66 1.82,1.82 0 0 0 342.26,62 6.83,6.83 0 0 0 340.1,61.24 Z m 2,-12.55 a 1.8,1.8 0 0 1 0.61,-1.37 2.08,2.08 0 0 1 1.49,-0.58 2.2,2.2 0 0 1 1.57,0.65 2,2 0 0 1 0.68,1.4 2,2 0 0 1 -0.68,1.42 2.17,2.17 0 0 1 -1.57,0.66 2,2 0 0 1 -1.5,-0.6 2.16,2.16 0 0 1 -0.57,-1.58 z"
         id="path845" />
      <path
         class="cls-1"
         d="m 359.91,59.57 c 4,0.1 6.15,0.14 6.4,0.14 a 7.25,7.25 0 0 1 0.05,0.8 8.4,8.4 0 0 1 -0.07,0.94 7.12,7.12 0 0 1 -1.23,0.1 h -0.92 a 25.77,25.77 0 0 0 -4.16,0.22 c 0,0.37 0,0.65 0,0.84 a 2.93,2.93 0 0 0 0,0.37 q 0.12,3.78 0.12,4.59 l -0.1,6.21 a 5.05,5.05 0 0 0 0.46,2.29 1.88,1.88 0 0 0 1,0.85 9.64,9.64 0 0 0 2.22,0.43 l 1.79,0.27 a 3,3 0 0 1 -0.07,0.77 h -0.34 c -0.77,0 -1.78,-0.09 -3,-0.13 l -1.79,-0.07 -6.09,0.2 h -0.79 v -0.75 l 0.53,-0.12 a 7.07,7.07 0 0 0 2.69,-0.87 1.15,1.15 0 0 0 0.33,-0.7 c 0,-0.2 0,-1.1 0,-2.71 q 0,-6.88 -0.12,-11 A 9.11,9.11 0 0 0 354.89,62 c -0.32,0 -0.83,0 -1.52,-0.09 l -0.05,-0.27 a 0.6,0.6 0 0 1 0.24,-0.49 21.37,21.37 0 0 1 2,-1 2.39,2.39 0 0 0 1.06,-0.84 2.47,2.47 0 0 0 0.2,-1.12 c 0,-0.25 0.06,-0.7 0.14,-1.33 a 26.31,26.31 0 0 1 0.46,-3.07 11.71,11.71 0 0 1 1.46,-3.23 12,12 0 0 1 2.48,-2.82 7.38,7.38 0 0 1 2.4,-1.31 10,10 0 0 1 3.06,-0.44 5.92,5.92 0 0 1 3.36,0.75 1.52,1.52 0 0 1 0.72,1.29 1.57,1.57 0 0 1 -0.5,1.16 1.77,1.77 0 0 1 -1.26,0.48 5.14,5.14 0 0 1 -2,-0.46 c -1.34,-0.54 -2.1,-0.83 -2.27,-0.87 a 3.75,3.75 0 0 0 -0.95,-0.12 3.84,3.84 0 0 0 -2.42,0.85 3.58,3.58 0 0 0 -1.39,2.08 31.24,31.24 0 0 0 -0.29,5.56 c 0.07,1.05 0.07,2 0.09,2.86 z"
         id="path847" />
      <path
         class="cls-1"
         d="m 369.38,61.24 v -0.72 a 17.7,17.7 0 0 0 1.72,-0.52 7.62,7.62 0 0 0 1.82,-1.19 8.24,8.24 0 0 0 1.61,-1.81 2.26,2.26 0 0 1 0.46,0 h 0.29 c 0.06,0.78 0.09,1.34 0.09,1.69 0,0.09 0,0.45 0,1.09 V 61 68 l -0.07,7.37 a 1.8,1.8 0 0 0 0.29,1.25 4.8,4.8 0 0 0 1.86,0.78 c 0.64,0.18 1.13,0.33 1.45,0.46 a 0.71,0.71 0 0 1 0.07,0.29 0.76,0.76 0 0 1 -0.12,0.36 c -0.63,0 -1.43,-0.05 -2.42,-0.12 -1.33,-0.11 -2.22,-0.17 -2.65,-0.17 l -3.87,0.12 c -0.48,0 -0.95,0.06 -1.4,0.12 A 1.6,1.6 0 0 1 368.12,78.39 0.53,0.53 0 0 1 368,78.1 c 0,-0.22 0.15,-0.4 0.46,-0.53 0.06,0 0.89,-0.22 2.46,-0.56 a 1.52,1.52 0 0 0 1,-0.48 2.57,2.57 0 0 0 0.41,-1.61 q 0,-1.86 0.05,-10.19 a 8.18,8.18 0 0 0 -0.15,-2.07 1.82,1.82 0 0 0 -0.64,-0.66 6.73,6.73 0 0 0 -2.21,-0.76 z m 2,-12.55 a 1.81,1.81 0 0 1 0.62,-1.37 2.06,2.06 0 0 1 1.48,-0.58 2.24,2.24 0 0 1 1.58,0.65 1.93,1.93 0 0 1 0.67,1.4 2,2 0 0 1 -0.67,1.42 2.21,2.21 0 0 1 -1.58,0.66 2,2 0 0 1 -1.49,-0.6 2.12,2.12 0 0 1 -0.58,-1.58 z"
         id="path849" />
      <path
         class="cls-1"
         d="m 399.61,74 v 1.57 a 11.42,11.42 0 0 1 -3.72,2.8 10.78,10.78 0 0 1 -4.32,0.8 8.76,8.76 0 0 1 -4.88,-1.41 9.13,9.13 0 0 1 -3.35,-4 12.29,12.29 0 0 1 -1.17,-5.08 10.06,10.06 0 0 1 1.41,-5.15 9.09,9.09 0 0 1 3.75,-3.63 12.7,12.7 0 0 1 5.86,-1.2 9.4,9.4 0 0 1 5.14,1.16 2.06,2.06 0 0 1 1,1.74 1.74,1.74 0 0 1 -0.5,1.28 1.78,1.78 0 0 1 -1.31,0.51 4,4 0 0 1 -2.66,-1.5 5.85,5.85 0 0 0 -1.62,-1.26 3.55,3.55 0 0 0 -1.61,-0.35 4.4,4.4 0 0 0 -3.57,1.72 9.87,9.87 0 0 0 -2,6.31 9.09,9.09 0 0 0 2,6.23 6.11,6.11 0 0 0 4.73,2.32 8.55,8.55 0 0 0 3.35,-0.62 14,14 0 0 0 3.47,-2.24 z"
         id="path851" />
      <path
         class="cls-1"
         d="m 416.3,77.62 a 3.87,3.87 0 0 1 1.09,-0.27 c 2.47,-0.16 3.88,-0.45 4.23,-0.88 0.35,-0.43 0.53,-2.49 0.53,-6.2 v -2.54 -2.66 l -0.1,-2.93 0.05,-1.72 v -1.88 -2.23 l -0.05,-1 0.05,-1.26 c 0,-0.29 0,-0.62 0,-1 0,-1 -0.05,-2.09 -0.14,-3.22 a 4.06,4.06 0 0 0 -0.27,-0.65 8.18,8.18 0 0 0 -2.89,-0.62 7.36,7.36 0 0 1 -2.26,-0.35 c -0.13,-0.09 -0.2,-0.34 -0.22,-0.75 h 2 l 6.41,0.15 q 2.47,0 6.58,-0.15 a 5.64,5.64 0 0 1 0,0.73 15.27,15.27 0 0 1 -1.62,0.26 12.8,12.8 0 0 0 -2.81,0.51 0.88,0.88 0 0 0 -0.46,0.41 4.07,4.07 0 0 0 -0.28,1.62 l -0.14,3.12 0.1,10.76 v 4.26 c 0,1.34 0,2.25 0,2.73 a 25.77,25.77 0 0 0 0.14,3.46 1.94,1.94 0 0 0 0.46,1.08 2.27,2.27 0 0 0 1.07,0.52 10.67,10.67 0 0 0 1.74,0.29 3,3 0 0 1 1.72,0.38 3.07,3.07 0 0 1 0.07,0.54 v 0.19 c -1.47,0.05 -2.55,0.07 -3.25,0.07 -0.4,0 -1.12,0 -2.15,-0.07 l -3.34,0.05 h -5.69 -0.46 z"
         id="path853" />
      <path
         class="cls-1"
         d="m 434.69,77.59 a 12.33,12.33 0 0 1 1.4,-0.28 4.27,4.27 0 0 0 1.83,-0.51 1.94,1.94 0 0 0 0.3,-1.32 v -0.87 c 0,-0.32 0,-0.73 0,-1.23 L 438.24,66 a 3.25,3.25 0 0 0 -0.38,-1.93 4.3,4.3 0 0 0 -2.42,-0.94 v -0.88 a 7.21,7.21 0 0 0 2.71,-1.25 8.67,8.67 0 0 0 2.32,-3 h 0.82 c 0,0.76 0.07,1.3 0.07,1.62 v 1.6 0.44 c 0.2,-0.13 0.42,-0.29 0.68,-0.49 a 15.89,15.89 0 0 1 3,-1.78 14.66,14.66 0 0 1 2.71,-1 6.72,6.72 0 0 1 1.69,-0.19 5.54,5.54 0 0 1 3.41,1.06 4.83,4.83 0 0 1 1.85,2.51 24.72,24.72 0 0 1 0.42,5.72 v 3.65 c 0,0.1 0,0.42 0,1 0,0.58 0,1.18 0,1.89 a 10,10 0 0 0 0.14,2.15 1.44,1.44 0 0 0 0.63,0.63 5.69,5.69 0 0 1 2.71,0.75 v 0.19 a 1.72,1.72 0 0 1 -0.15,0.61 h -0.46 -3.19 l -3.14,0.07 c -1.16,0 -2.23,0 -3.21,0 l -0.15,-0.51 a 0.78,0.78 0 0 1 0.17,-0.39 6.14,6.14 0 0 1 1.84,-0.39 4.31,4.31 0 0 0 1,-0.14 2.56,2.56 0 0 0 0.65,-0.39 2.35,2.35 0 0 0 0.29,-1 c 0,-0.11 0,-0.33 -0.05,-0.67 0,-0.75 -0.08,-2.59 -0.1,-5.54 v -1.24 l 0.05,-1.94 c 0,-2.08 -0.42,-3.52 -1.26,-4.31 a 4.66,4.66 0 0 0 -3.35,-1.18 7.58,7.58 0 0 0 -3.17,0.71 10.9,10.9 0 0 0 -3,2.14 c 0,0.77 0,1.43 0,2 l 0.07,5.34 c 0,2.79 0,4.5 0.12,5.12 a 1.1,1.1 0 0 0 0.17,0.54 1.67,1.67 0 0 0 0.77,0.31 c 0.39,0.08 0.84,0.19 1.34,0.34 0.5,0.15 0.84,0.23 1,0.26 a 0.93,0.93 0 0 1 0.66,0.49 v 0.48 h -2.53 l -5.22,-0.07 h -2.3 -0.6 l -0.05,-0.31 a 2.26,2.26 0 0 1 -0.11,-0.49 z"
         id="path855" />
      <path
         class="cls-1"
         d="m 463.49,72.25 a 18.18,18.18 0 0 0 1.36,3 6.83,6.83 0 0 0 2.15,2.11 5.37,5.37 0 0 0 2.78,0.77 4.15,4.15 0 0 0 2.73,-1.19 2.73,2.73 0 0 0 1,-2.08 4.38,4.38 0 0 0 -1.14,-2.9 10.88,10.88 0 0 0 -4.31,-2.5 9.86,9.86 0 0 1 -4.26,-2.55 4.76,4.76 0 0 1 -1.09,-3.09 4.93,4.93 0 0 1 0.89,-2.9 5.51,5.51 0 0 1 2.47,-1.9 7.82,7.82 0 0 1 2.9,-0.64 16,16 0 0 1 3.08,0.27 7.92,7.92 0 0 1 2.35,0.82 c 0.13,0.82 0.24,2 0.32,3.63 v 0.77 c -0.21,0 -0.39,0 -0.53,0 h -0.34 a 7,7 0 0 0 -2.21,-3.17 4.78,4.78 0 0 0 -2.94,-1.18 3.17,3.17 0 0 0 -2.34,0.89 3.06,3.06 0 0 0 -0.9,2.3 2.88,2.88 0 0 0 0.73,1.94 9.65,9.65 0 0 0 3.39,1.92 18,18 0 0 1 3.89,2 5.53,5.53 0 0 1 1.8,2.26 6.3,6.3 0 0 1 0.58,2.54 5,5 0 0 1 -1.1,3.12 5.82,5.82 0 0 1 -2.75,2 8.76,8.76 0 0 1 -3,0.59 13.89,13.89 0 0 1 -5.56,-1.08 0.94,0.94 0 0 1 -0.26,-0.73 c 0,-0.14 0,-0.37 -0.05,-0.7 -0.26,-2.17 -0.39,-3.46 -0.39,-3.86 a 0.49,0.49 0 0 1 0.12,-0.39 1.29,1.29 0 0 1 0.63,-0.07 z"
         id="path857" />
      <path
         class="cls-1"
         d="m 486,54.52 h 0.75 l 0.1,2.3 -0.05,3 h 0.58 c 0.42,0 1.22,0 2.39,-0.09 0.76,-0.05 1.48,-0.07 2.18,-0.07 0.32,0 0.8,0 1.45,0 0,0.32 0.05,0.58 0.05,0.77 a 5.13,5.13 0 0 1 -0.15,1 h -0.41 l -3.74,0.12 h -1.87 l -0.43,0.05 a 4.56,4.56 0 0 0 -0.19,1.4 l 0.07,3.63 -0.05,6.38 a 5.85,5.85 0 0 0 0.65,3.33 2.22,2.22 0 0 0 1.89,0.85 13.31,13.31 0 0 0 2.37,-0.39 4.23,4.23 0 0 0 1.42,-0.8 h 0.22 a 0.52,0.52 0 0 1 0.35,0.13 0.48,0.48 0 0 1 0.13,0.36 v 0.16 a 6.31,6.31 0 0 1 -2.38,1.66 10,10 0 0 1 -3.57,0.52 4.33,4.33 0 0 1 -2.59,-0.73 3.16,3.16 0 0 1 -1.32,-1.71 19.84,19.84 0 0 1 -0.29,-4.33 l 0.1,-5.43 v -2.61 -1 c 0,-0.45 0,-0.9 -0.05,-1.35 h -0.41 l -2,0.08 h -0.19 a 0.58,0.58 0 0 1 -0.4,-0.12 0.37,0.37 0 0 1 -0.13,-0.29 0.64,0.64 0 0 1 0.18,-0.47 4.4,4.4 0 0 1 1.1,-0.57 5.85,5.85 0 0 0 1.46,-1 8,8 0 0 0 1.41,-1.63 13.59,13.59 0 0 0 0.82,-1.84 c 0.19,-0.57 0.38,-1.04 0.55,-1.31 z"
         id="path859" />
      <path
         class="cls-1"
         d="m 495.87,61.24 v -0.72 c 1.05,-0.3 1.61,-0.48 1.7,-0.53 a 8,8 0 0 0 1.82,-1.19 8.24,8.24 0 0 0 1.61,-1.8 2.19,2.19 0 0 1 0.46,0 h 0.29 c 0.06,0.78 0.09,1.34 0.09,1.69 0,0.09 0,0.45 -0.05,1.09 V 61 68 l -0.07,7.37 a 1.8,1.8 0 0 0 0.29,1.25 4.65,4.65 0 0 0 1.86,0.78 c 0.64,0.18 1.12,0.33 1.45,0.46 a 0.93,0.93 0 0 1 0.07,0.29 0.76,0.76 0 0 1 -0.12,0.36 c -0.63,0 -1.44,-0.05 -2.42,-0.12 -1.34,-0.11 -2.22,-0.17 -2.66,-0.17 l -3.86,0.12 c -0.49,0 -0.95,0.06 -1.4,0.12 a 1.52,1.52 0 0 1 -0.39,-0.07 0.53,0.53 0 0 1 -0.12,-0.29 c 0,-0.22 0.15,-0.4 0.46,-0.53 0.06,0 0.88,-0.22 2.46,-0.56 a 1.52,1.52 0 0 0 1,-0.48 2.57,2.57 0 0 0 0.41,-1.61 q 0,-1.86 0.05,-10.19 a 8.18,8.18 0 0 0 -0.15,-2.07 1.82,1.82 0 0 0 -0.64,-0.66 6.83,6.83 0 0 0 -2.14,-0.76 z m 2,-12.55 a 1.78,1.78 0 0 1 0.62,-1.37 2.06,2.06 0 0 1 1.48,-0.58 2.2,2.2 0 0 1 1.57,0.65 2,2 0 0 1 0.68,1.4 2,2 0 0 1 -0.68,1.42 2.17,2.17 0 0 1 -1.57,0.66 2.07,2.07 0 0 1 -1.5,-0.6 2.16,2.16 0 0 1 -0.57,-1.58 z"
         id="path861" />
      <path
         class="cls-1"
         d="m 513.7,54.52 h 0.75 l 0.1,2.3 v 3 h 0.58 c 0.42,0 1.21,0 2.39,-0.09 0.76,-0.05 1.48,-0.07 2.18,-0.07 0.32,0 0.8,0 1.44,0 a 6.2,6.2 0 0 1 0,0.77 5.8,5.8 0 0 1 -0.14,1 h -0.41 l -3.75,0.12 h -1.86 l -0.43,0.05 a 4.54,4.54 0 0 0 -0.2,1.4 l 0.08,3.63 v 6.38 a 5.85,5.85 0 0 0 0.65,3.33 2.22,2.22 0 0 0 1.89,0.85 13.38,13.38 0 0 0 2.36,-0.39 4.25,4.25 0 0 0 1.43,-0.8 h 0.22 a 0.52,0.52 0 0 1 0.35,0.13 0.48,0.48 0 0 1 0.13,0.36 v 0.16 a 6.34,6.34 0 0 1 -2.46,1.73 10,10 0 0 1 -3.56,0.52 4.36,4.36 0 0 1 -2.6,-0.73 3.19,3.19 0 0 1 -1.31,-1.71 19.2,19.2 0 0 1 -0.29,-4.33 l 0.09,-5.43 v -2.61 -1 c 0,-0.45 0,-0.9 -0.05,-1.35 h -0.41 l -2,0.08 h -0.19 a 0.58,0.58 0 0 1 -0.4,-0.12 0.38,0.38 0 0 1 -0.14,-0.29 0.64,0.64 0 0 1 0.18,-0.47 4.85,4.85 0 0 1 1.1,-0.57 5.88,5.88 0 0 0 1.47,-1 8.34,8.34 0 0 0 1.41,-1.63 15,15 0 0 0 0.82,-1.84 c 0.26,-0.64 0.45,-1.11 0.58,-1.38 z"
         id="path863" />
      <path
         class="cls-1"
         d="m 523,59.42 h 1.81 0.79 0.63 c 1.65,0 2.68,0 3.08,0 v 0.46 q 0,3.41 -0.09,6.6 c 0,1.25 -0.08,2 -0.08,2.15 a 29.47,29.47 0 0 0 0.28,5.31 2.83,2.83 0 0 0 1.31,1.71 4.67,4.67 0 0 0 2.48,0.64 8,8 0 0 0 3.38,-0.74 10.08,10.08 0 0 0 2.75,-1.8 15.73,15.73 0 0 0 0.12,-2 c 0,-2.4 0,-4 0.08,-4.86 0,-0.49 0,-0.93 0,-1.3 0,-2.61 -0.13,-4.08 -0.39,-4.42 -0.26,-0.34 -1.24,-0.6 -2.94,-0.78 -0.57,-0.06 -1,-0.12 -1.24,-0.16 a 1.06,1.06 0 0 1 -0.19,-0.49 l 0.07,-0.26 a 10.43,10.43 0 0 1 1.23,-0.08 h 3.85 2.17 a 4.12,4.12 0 0 1 0.51,0 l 0.05,1.76 c -0.12,2.45 -0.18,5.48 -0.2,9.09 v 2 l 0.1,3.29 a 1.11,1.11 0 0 0 0.39,0.46 3.69,3.69 0 0 0 1.18,0.12 h 0.22 c 0.21,0 0.8,0 1.79,0.15 0,0.2 0,0.36 0,0.45 V 77 a 45.81,45.81 0 0 0 -5.24,1.4 12.63,12.63 0 0 1 -1.35,0.39 9.47,9.47 0 0 1 -0.13,-1 v -2 c 0,-0.08 0,-0.3 0,-0.65 -0.21,0.14 -0.45,0.32 -0.72,0.53 a 22.89,22.89 0 0 1 -4,2.49 6.19,6.19 0 0 1 -2.75,0.7 5.19,5.19 0 0 1 -4.19,-1.86 q -1.62,-1.89 -1.62,-6.43 0,-0.24 0,-0.87 c 0.06,-0.77 0.1,-1.31 0.1,-1.62 0,-0.11 0,-0.47 0,-1.06 0,-0.26 0,-0.49 0,-0.68 0,-0.19 0,-0.47 0,-1 0,-0.53 0,-0.86 0,-1.07 0,-0.21 0,-0.52 0,-0.73 v -1.28 -0.68 a 0.91,0.91 0 0 0 -0.39,-0.7 c -1,-0.27 -1.68,-0.43 -2,-0.47 a 3.7,3.7 0 0 1 -0.84,-0.2 z"
         id="path865" />
      <path
         class="cls-1"
         d="m 554.34,54.52 h 0.75 l 0.1,2.3 -0.05,3 h 0.58 c 0.42,0 1.22,0 2.39,-0.09 0.76,-0.05 1.48,-0.07 2.18,-0.07 0.32,0 0.8,0 1.45,0 0,0.32 0,0.58 0,0.77 a 5.13,5.13 0 0 1 -0.15,1 h -0.41 l -3.75,0.12 h -1.86 l -0.43,0.05 a 4.56,4.56 0 0 0 -0.19,1.4 l 0.07,3.63 -0.02,6.45 a 5.85,5.85 0 0 0 0.65,3.33 2.22,2.22 0 0 0 1.89,0.85 13.38,13.38 0 0 0 2.36,-0.39 4.25,4.25 0 0 0 1.43,-0.8 h 0.22 a 0.52,0.52 0 0 1 0.35,0.13 0.48,0.48 0 0 1 0.13,0.36 v 0.16 a 6.39,6.39 0 0 1 -2.38,1.66 10.05,10.05 0 0 1 -3.57,0.52 4.39,4.39 0 0 1 -2.6,-0.73 3.19,3.19 0 0 1 -1.31,-1.71 19.2,19.2 0 0 1 -0.29,-4.33 L 552,66.7 v -2.61 -1 c 0,-0.45 0,-0.9 -0.05,-1.35 h -0.41 l -2,0.08 h -0.19 a 0.58,0.58 0 0 1 -0.4,-0.12 0.38,0.38 0 0 1 -0.14,-0.29 0.65,0.65 0 0 1 0.19,-0.41 4.4,4.4 0 0 1 1.1,-0.57 6,6 0 0 0 1.46,-1 8.34,8.34 0 0 0 1.41,-1.63 15,15 0 0 0 0.82,-1.84 c 0.21,-0.7 0.42,-1.17 0.55,-1.44 z"
         id="path867" />
      <path
         class="cls-1"
         d="m 582,65.63 -9.69,0.07 h -1.83 c -0.74,0 -1.5,0 -2.27,0.1 a 4.18,4.18 0 0 0 -0.22,1 v 0.24 0.25 1.18 a 9.41,9.41 0 0 0 0.93,3.61 7.12,7.12 0 0 0 2.66,3.26 8.19,8.19 0 0 0 4.31,1.2 8.84,8.84 0 0 0 2.2,-0.34 10.93,10.93 0 0 0 2.3,-1.2 l 1.74,-1.43 0.14,1 a 2.23,2.23 0 0 1 0,0.36 10.47,10.47 0 0 1 -2.75,2.42 13.21,13.21 0 0 1 -3.39,1.52 11.47,11.47 0 0 1 -2.7,0.22 8.65,8.65 0 0 1 -3.39,-0.7 8.23,8.23 0 0 1 -3.87,-3.42 10.85,10.85 0 0 1 -1.42,-5.71 12,12 0 0 1 0.4,-2.73 14.61,14.61 0 0 1 1.44,-3.56 7.15,7.15 0 0 1 1.71,-2.1 11.83,11.83 0 0 1 2.54,-1.62 9.55,9.55 0 0 1 3.65,-0.65 7.25,7.25 0 0 1 3.67,0.82 7.36,7.36 0 0 1 2.89,2.8 6.53,6.53 0 0 1 1,3.15 z m -13.48,-0.87 h 1.14 q 1.23,0 7.34,-0.38 a 3.14,3.14 0 0 0 1.19,-0.2 1.26,1.26 0 0 0 0.43,-0.82 3.87,3.87 0 0 0 -0.48,-1.7 3.33,3.33 0 0 0 -1.49,-1.48 5.06,5.06 0 0 0 -2.33,-0.51 5.46,5.46 0 0 0 -4.49,2.1 4.86,4.86 0 0 0 -1.33,2.99 z"
         id="path869" />
      <path
         class="cls-1"
         d="m 609.62,83 a 1.46,1.46 0 0 0 1.13,0.45 1,1 0 0 0 0.83,-0.51 3.76,3.76 0 0 0 0.47,-1.13 c 0.27,-1.09 0.56,-2.31 0.85,-3.66 0.29,-1.35 0.58,-2.7 0.84,-4.08 l 1.33,-6.95 h -2.18 c -0.17,0 -0.25,-0.11 -0.25,-0.32 l 0.11,-0.44 a 0.22,0.22 0 0 1 0.22,-0.18 h 2.29 l 0.35,-1.86 q 0.35,-1.69 0.69,-2.82 a 6,6 0 0 1 1.12,-2.08 2.53,2.53 0 0 1 2.05,-1 3.1,3.1 0 0 1 0.83,0.1 2.36,2.36 0 0 1 0.72,0.33 1.7,1.7 0 0 1 0.54,0.56 1.52,1.52 0 0 1 0.2,0.79 1.63,1.63 0 0 1 -0.38,1.07 1.19,1.19 0 0 1 -1,0.46 1,1 0 0 1 -0.66,-0.24 0.77,0.77 0 0 1 -0.28,-0.62 1.24,1.24 0 0 1 0.32,-0.84 1.47,1.47 0 0 1 0.81,-0.48 1.62,1.62 0 0 0 -1.19,-0.46 0.85,0.85 0 0 0 -0.6,0.29 2,2 0 0 0 -0.43,0.65 c -0.1,0.3 -0.26,0.94 -0.47,1.93 -0.21,0.99 -0.37,1.76 -0.47,2.31 l -0.37,1.86 h 2.66 a 0.18,0.18 0 0 1 0.16,0.09 0.36,0.36 0 0 1 0.06,0.2 l -0.11,0.46 c 0,0.12 -0.07,0.19 -0.22,0.19 h -2.69 l -1.35,7 c -0.3,1.64 -0.53,2.8 -0.67,3.49 a 24.93,24.93 0 0 1 -0.78,2.66 9.86,9.86 0 0 1 -1.42,2.78 2.47,2.47 0 0 1 -2,1.13 2.64,2.64 0 0 1 -1.55,-0.48 1.52,1.52 0 0 1 -0.69,-1.3 1.66,1.66 0 0 1 0.38,-1.08 1.21,1.21 0 0 1 1,-0.45 1,1 0 0 1 0.67,0.24 0.78,0.78 0 0 1 0.27,0.61 1.29,1.29 0 0 1 -0.33,0.86 1.36,1.36 0 0 1 -0.81,0.47 z"
         id="path871" />
      <path
         class="cls-1"
         d="M 625.71,78.67 A 3.62,3.62 0 0 1 623.6,78 a 4,4 0 0 1 -1.4,-1.67 5.49,5.49 0 0 1 -0.47,-2.27 8,8 0 0 1 0.56,-2.81 10,10 0 0 1 1.54,-2.68 7.71,7.71 0 0 1 2.26,-1.94 5.33,5.33 0 0 1 2.7,-0.74 3.67,3.67 0 0 1 2.15,0.65 4,4 0 0 1 1.38,1.67 5.64,5.64 0 0 1 0.46,2.26 8.2,8.2 0 0 1 -1,3.74 9,9 0 0 1 -2.6,3.17 5.66,5.66 0 0 1 -3.47,1.29 z m 0.06,-0.68 a 3.39,3.39 0 0 0 2.72,-1.49 10.49,10.49 0 0 0 1.76,-3.5 12.62,12.62 0 0 0 0.61,-3.52 3.67,3.67 0 0 0 -0.53,-2 1.76,1.76 0 0 0 -1.59,-0.86 3.42,3.42 0 0 0 -2.74,1.48 10.53,10.53 0 0 0 -1.75,3.55 12.88,12.88 0 0 0 -0.6,3.53 3.55,3.55 0 0 0 0.53,2 1.74,1.74 0 0 0 1.59,0.82 z"
         id="path873" />
      <path
         class="cls-1"
         d="m 637.3,78 a 0.7,0.7 0 0 1 0,-0.24 l 2.12,-8.52 a 7.31,7.31 0 0 0 0.22,-1.51 c 0,-0.72 -0.24,-1.08 -0.73,-1.08 a 0.94,0.94 0 0 0 -0.72,0.41 3.83,3.83 0 0 0 -0.57,1.07 c -0.16,0.43 -0.29,0.84 -0.39,1.22 -0.1,0.38 -0.18,0.72 -0.25,1 -0.07,0.28 -0.11,0.2 -0.19,0.2 h -0.51 c -0.13,0 -0.2,-0.09 -0.2,-0.29 0,-0.2 0.19,-0.7 0.34,-1.26 a 9.51,9.51 0 0 1 0.55,-1.51 3.44,3.44 0 0 1 0.82,-1.1 1.8,1.8 0 0 1 1.18,-0.42 2.3,2.3 0 0 1 1.54,0.56 2.19,2.19 0 0 1 0.77,1.42 4.1,4.1 0 0 1 3.33,-2 4.24,4.24 0 0 1 1.9,0.42 1.39,1.39 0 0 1 0.84,1.34 1.5,1.5 0 0 1 -0.38,1 1.23,1.23 0 0 1 -1,0.45 1,1 0 0 1 -0.66,-0.24 0.77,0.77 0 0 1 -0.28,-0.61 1.32,1.32 0 0 1 0.29,-0.82 1.35,1.35 0 0 1 0.73,-0.47 2.33,2.33 0 0 0 -1.53,-0.43 q -2,0 -3.5,3.39 l -2,7.8 a 1.17,1.17 0 0 1 -0.4,0.63 1,1 0 0 1 -0.67,0.24 0.8,0.8 0 0 1 -0.54,-0.2 A 0.61,0.61 0 0 1 637.3,78 Z"
         id="path875" />
      <path
         class="cls-1"
         d="m 660.69,76.18 a 3.1,3.1 0 0 1 0.11,-0.86 l 2,-8.17 h -2.67 A 0.19,0.19 0 0 1 660,67 0.33,0.33 0 0 1 659.93,66.79 l 0.11,-0.44 a 0.25,0.25 0 0 1 0.23,-0.18 h 2.8 l 1.15,-4.64 a 1.41,1.41 0 0 1 0.4,-0.6 1,1 0 0 1 0.66,-0.24 0.82,0.82 0 0 1 0.56,0.2 0.66,0.66 0 0 1 0.22,0.51 0.6,0.6 0 0 1 0,0.23 l -1.13,4.54 h 2.62 a 0.18,0.18 0 0 1 0.16,0.1 0.32,0.32 0 0 1 0.07,0.19 l -0.12,0.46 c 0,0.12 -0.08,0.19 -0.22,0.19 h -2.75 l -2,8.25 a 6.24,6.24 0 0 0 -0.23,1.53 c 0,0.71 0.25,1.06 0.74,1.06 a 2.31,2.31 0 0 0 1.94,-1.09 11,11 0 0 0 1.35,-2.61 c 0.05,-0.12 0.12,-0.19 0.21,-0.19 h 0.51 a 0.17,0.17 0 0 1 0.14,0.08 0.42,0.42 0 0 1 0,0.2 q -1.66,4.29 -4.25,4.29 a 2.25,2.25 0 0 1 -1.72,-0.71 2.57,2.57 0 0 1 -0.69,-1.74 z"
         id="path877" />
      <path
         class="cls-1"
         d="m 669.67,77.94 a 0.81,0.81 0 0 1 0,-0.2 l 4.1,-16.44 a 6.18,6.18 0 0 0 0.14,-0.76 c 0,-0.34 -0.6,-0.51 -1.81,-0.51 a 0.18,0.18 0 0 1 -0.16,-0.1 0.36,0.36 0 0 1 -0.07,-0.22 l 0.11,-0.44 a 0.25,0.25 0 0 1 0.23,-0.18 l 3.64,-0.3 h 0.15 0.09 a 0.025,0 -180 0 0 0.05,0 1.24,1.24 0 0 0 0.06,0.19 l -2.2,8.79 a 4.78,4.78 0 0 1 3.72,-1.84 2.83,2.83 0 0 1 2.09,0.77 2.87,2.87 0 0 1 0.77,2.12 9.91,9.91 0 0 1 -0.54,2.94 c -0.35,1.14 -0.77,2.35 -1.27,3.64 a 7.47,7.47 0 0 0 -0.43,1.83 c 0,0.51 0.2,0.76 0.59,0.76 a 1.54,1.54 0 0 0 1.2,-0.54 3.84,3.84 0 0 0 0.74,-1.14 c 0.17,-0.41 0.34,-0.87 0.52,-1.39 0.18,-0.52 0.3,-0.8 0.37,-0.82 h 0.51 a 0.17,0.17 0 0 1 0.14,0.08 0.34,0.34 0 0 1 0.06,0.2 10.07,10.07 0 0 1 -0.72,2 5.16,5.16 0 0 1 -1.2,1.62 2.45,2.45 0 0 1 -1.68,0.67 2,2 0 0 1 -1.53,-0.64 2.27,2.27 0 0 1 -0.58,-1.58 3.86,3.86 0 0 1 0.19,-1.13 c 0.53,-1.38 1,-2.68 1.34,-3.88 a 10.66,10.66 0 0 0 0.55,-3 2.8,2.8 0 0 0 -0.27,-1.27 1,1 0 0 0 -0.94,-0.54 3.31,3.31 0 0 0 -2.49,1.06 9.64,9.64 0 0 0 -1.8,2.75 l -1.87,7.43 a 1,1 0 0 1 -0.38,0.58 1.05,1.05 0 0 1 -0.66,0.24 0.77,0.77 0 0 1 -0.54,-0.2 0.64,0.64 0 0 1 -0.22,-0.55 z"
         id="path879" />
      <path
         class="cls-1"
         d="m 689.77,78.67 a 3.32,3.32 0 0 1 -2.16,-0.71 4.28,4.28 0 0 1 -1.29,-1.84 6.43,6.43 0 0 1 -0.43,-2.34 8.15,8.15 0 0 1 0.5,-2.82 8.36,8.36 0 0 1 1.45,-2.54 7.08,7.08 0 0 1 2.24,-1.82 5.84,5.84 0 0 1 2.77,-0.67 3.09,3.09 0 0 1 1.94,0.63 2.09,2.09 0 0 1 0.81,1.75 2.79,2.79 0 0 1 -2.15,2.93 17.49,17.49 0 0 1 -5.11,0.65 h -0.07 c -0.11,0.46 -0.19,0.84 -0.24,1.12 -0.05,0.28 -0.11,0.61 -0.16,1 a 9.32,9.32 0 0 0 -0.06,1 4.51,4.51 0 0 0 0.48,2.1 1.63,1.63 0 0 0 1.54,0.92 5.42,5.42 0 0 0 2.87,-0.82 A 8.23,8.23 0 0 0 695,75 h 0.3 c 0.25,0.21 0.37,0.36 0.37,0.45 a 0.14,0.14 0 0 1 0,0.11 7.48,7.48 0 0 1 -2.59,2.25 6.9,6.9 0 0 1 -3.31,0.86 z m -1.32,-7.45 a 15,15 0 0 0 4.25,-0.54 2.28,2.28 0 0 0 1.82,-2.37 1.57,1.57 0 0 0 -0.5,-1.22 1.71,1.71 0 0 0 -1.22,-0.48 3.37,3.37 0 0 0 -2.75,1.39 8.79,8.79 0 0 0 -1.6,3.22 z"
         id="path881" />
      <path
         class="cls-1"
         d="m 269,127.3 a 6.48,6.48 0 0 1 2.7,-0.73 5,5 0 0 0 1.82,-0.26 1.12,1.12 0 0 0 0.29,-0.36 21.09,21.09 0 0 0 0.53,-4.84 q 0.21,-5.14 0.71,-13.7 c 0.26,-4.35 0.4,-7.06 0.4,-8.14 v -0.63 q -1.75,-0.36 -5.53,-0.77 a 1.11,1.11 0 0 1 -0.25,-0.56 1.23,1.23 0 0 1 0.17,-0.43 2,2 0 0 1 0.63,-0.15 6.5,6.5 0 0 1 0.84,0.1 24.84,24.84 0 0 0 3.26,0.17 c 0.45,0 1.22,0 2.31,-0.11 l 1.31,-0.09 a 3.24,3.24 0 0 1 0.89,0.15 2.33,2.33 0 0 1 0.37,0.46 l 1,2.28 6.84,15.12 2.85,6.35 a 106.24,106.24 0 0 0 5.2,-11.82 4.45,4.45 0 0 1 0.29,-0.7 7.74,7.74 0 0 0 0.41,-0.91 c 0.13,-0.34 0.65,-1.63 1.57,-3.87 0.36,-0.9 0.66,-1.68 0.89,-2.32 q 1.36,-3.87 1.61,-4.42 a 2.12,2.12 0 0 1 0.8,-0.2 8.43,8.43 0 0 1 1,0.08 c 0.91,0 2.38,0.07 4.41,0.07 1.26,0 2.29,0 3.1,0 a 2.91,2.91 0 0 1 0.05,0.39 2,2 0 0 1 -0.07,0.46 4.55,4.55 0 0 1 -1.86,0.46 12.44,12.44 0 0 0 -2.73,0.33 1.26,1.26 0 0 0 -0.74,0.56 9.43,9.43 0 0 0 -0.28,2.22 v 1.11 1.16 q 0,3.63 0.2,12.18 v 4.74 3 a 7.3,7.3 0 0 0 0.16,2.12 1.76,1.76 0 0 0 1,0.61 29.5,29.5 0 0 0 4.25,0.9 0.35,0.35 0 0 1 0.17,0.31 c 0,0.15 0,0.31 0,0.49 h -1.11 c -1,0 -2,0 -3.1,-0.09 l -1.79,-0.08 c -3.31,0 -5.51,0 -6.59,0.11 -0.66,0.05 -1.08,0.08 -1.26,0.08 a 0.76,0.76 0 0 1 -0.36,-0.1 v -0.31 a 1.51,1.51 0 0 1 0.07,-0.46 7.22,7.22 0 0 1 2.18,-0.46 7.94,7.94 0 0 0 2.22,-0.87 19.64,19.64 0 0 0 0.22,-3.75 l -0.07,-4.89 c 0,-0.53 0,-1.52 0.08,-3 0.08,-1.48 0.09,-3.81 0.09,-7.09 q 0,-3.89 -0.2,-5.9 c -0.27,0.57 -0.81,1.79 -1.61,3.68 l -0.36,0.91 -0.05,0.15 -3.56,8.46 -1.28,3.26 -1.66,4 q -1.08,2.73 -1.85,4.83 c -0.22,0.65 -0.41,1.15 -0.55,1.53 h -0.57 q -2.73,-8 -6.52,-16.36 -3.79,-8.36 -5.31,-11.06 -0.19,1 -0.44,6 -0.33,6.09 -0.33,13.41 a 45.69,45.69 0 0 0 0.34,5.15 1.63,1.63 0 0 0 0.7,1.22 7.56,7.56 0 0 0 3.12,0.44 10.88,10.88 0 0 1 1.84,0.15 1.49,1.49 0 0 1 0.16,0.54 1.38,1.38 0 0 1 -0.12,0.42 l -7.5,-0.26 c -0.54,0 -1.4,0 -2.55,0.1 -0.65,0 -1.57,0.08 -2.78,0.09 z"
         id="path883" />
      <path
         class="cls-1"
         d="m 329.59,124.59 a 1.24,1.24 0 0 1 0.15,0.46 3.21,3.21 0 0 1 -0.58,1.28 5.31,5.31 0 0 1 -1.67,1.77 3,3 0 0 1 -1.6,0.36 3.18,3.18 0 0 1 -2.61,-1.07 4.55,4.55 0 0 1 -0.75,-2.24 l -2.7,1.88 a 10.71,10.71 0 0 1 -2.18,1 11.56,11.56 0 0 1 -2.9,0.32 2.57,2.57 0 0 1 -1.94,-0.74 2.6,2.6 0 0 1 -0.71,-1.9 q 0,-1.66 2,-4 a 15.1,15.1 0 0 1 5.6,-3.71 c 1.65,-0.69 2.66,-1.13 3,-1.33 0,-0.53 0,-1.11 0,-1.74 0,-2 -0.29,-3.43 -0.86,-4.15 a 3,3 0 0 0 -2.46,-1.09 4.6,4.6 0 0 0 -3.13,1.3 5.79,5.79 0 0 0 -1.36,3.1 5.26,5.26 0 0 1 -0.55,1.35 3.43,3.43 0 0 1 -1.67,0.68 1.61,1.61 0 0 1 -1,-0.32 0.47,0.47 0 0 1 -0.24,-0.38 8.36,8.36 0 0 1 1.34,-2.84 8.85,8.85 0 0 1 3.38,-3.31 7.72,7.72 0 0 1 3.57,-1.1 9.56,9.56 0 0 1 3.09,0.37 4.48,4.48 0 0 1 2.73,3.37 35.64,35.64 0 0 1 0.1,3.8 l -0.07,3.84 v 2.8 c 0,0.37 0,0.69 0,0.94 0,0.47 0,0.82 0,1 a 1.76,1.76 0 0 0 0.46,1.28 1.48,1.48 0 0 0 1.09,0.49 1.91,1.91 0 0 0 1.57,-0.92 l 0.29,-0.39 a 2.49,2.49 0 0 1 0.61,-0.16 z m -7.08,-0.7 c 0.11,-2 0.17,-3.49 0.17,-4.32 0,-0.44 0,-1 -0.07,-1.77 a 16.9,16.9 0 0 0 -3.45,1.77 10.21,10.21 0 0 0 -2.88,2.73 3.7,3.7 0 0 0 -0.78,2.1 2.1,2.1 0 0 0 0.65,1.57 2.19,2.19 0 0 0 1.61,0.63 4.31,4.31 0 0 0 1.82,-0.53 12.5,12.5 0 0 0 2.93,-2.18 z"
         id="path885" />
      <path
         class="cls-1"
         d="m 337,104 h 0.75 l 0.1,2.29 -0.05,3 h 0.58 c 0.42,0 1.21,0 2.39,-0.1 0.76,0 1.48,-0.07 2.17,-0.07 h 1.45 a 6.2,6.2 0 0 1 0,0.77 5.8,5.8 0 0 1 -0.14,1 h -0.41 l -3.75,0.12 h -1.86 -0.43 a 4.54,4.54 0 0 0 -0.2,1.4 l 0.07,3.62 v 6.38 a 5.79,5.79 0 0 0 0.65,3.34 2.2,2.2 0 0 0 1.88,0.84 14,14 0 0 0 2.37,-0.38 4.44,4.44 0 0 0 1.43,-0.8 h 0.21 a 0.45,0.45 0 0 1 0.35,0.13 0.48,0.48 0 0 1 0.14,0.35 v 0.17 a 6.23,6.23 0 0 1 -2.38,1.66 10.19,10.19 0 0 1 -3.56,0.52 4.44,4.44 0 0 1 -2.6,-0.73 3.19,3.19 0 0 1 -1.31,-1.71 19.32,19.32 0 0 1 -0.29,-4.33 l 0.09,-5.44 v -2.61 -1 c 0,-0.45 0,-0.91 -0.05,-1.36 h -0.41 l -2,0.07 h -0.2 a 0.55,0.55 0 0 1 -0.39,-0.12 0.4,0.4 0 0 1 -0.14,-0.29 0.65,0.65 0 0 1 0.18,-0.48 4.36,4.36 0 0 1 1.1,-0.56 5.51,5.51 0 0 0 1.46,-1 7.81,7.81 0 0 0 1.42,-1.63 14,14 0 0 0 0.82,-1.83 c 0.2,-0.47 0.39,-0.94 0.56,-1.22 z"
         id="path887" />
      <path
         class="cls-1"
         d="m 345.42,127.27 a 15,15 0 0 0 3.26,-0.77 c 0.18,-0.11 0.27,-0.37 0.27,-0.77 v -1.6 -2.82 l -0.05,-7.19 v -2.68 -1.91 l 0.07,-2.34 c 0,-3.67 0,-5.87 -0.11,-6.58 a 2.12,2.12 0 0 0 -0.42,-1.34 8.18,8.18 0 0 0 -3.19,-1.16 V 98 a 4,4 0 0 1 0.05,-0.49 6.25,6.25 0 0 0 0.65,-0.12 4.49,4.49 0 0 1 0.61,-0.09 19,19 0 0 0 4.18,-1.6 h 1.18 c 0,0.45 0.05,1.88 0.05,4.28 v 3.07 4 l -0.1,4.88 c 0,0.29 0,0.61 0.05,1 a 23,23 0 0 1 2.23,-2.35 10.73,10.73 0 0 1 2.68,-1.61 7.73,7.73 0 0 1 3,-0.59 5.81,5.81 0 0 1 4.86,2.51 6.88,6.88 0 0 1 1.09,4.17 l -0.07,2.46 v 1.38 l -0.09,2.39 c -0.07,2 -0.1,3.15 -0.1,3.52 0,0.37 0,1 0.05,1.69 l 1.37,0.31 c 0.92,0.2 1.63,0.37 2.13,0.53 v 0.75 l -5.15,-0.14 q -0.43,0 -2.37,0.09 c -0.79,0 -1.25,0.05 -1.37,0.05 h -0.54 a 0.76,0.76 0 0 1 -0.12,-0.36 v -0.22 a 2,2 0 0 1 1.26,-0.58 l 1.45,-0.33 a 1,1 0 0 0 0.34,-0.51 c 0.06,-0.42 0.13,-2.49 0.21,-6.23 l 0.05,-1.78 a 15.39,15.39 0 0 0 -0.43,-4.68 3.39,3.39 0 0 0 -1.54,-2 5,5 0 0 0 -2.77,-0.76 5.62,5.62 0 0 0 -2.47,0.55 9.66,9.66 0 0 0 -1.92,1.43 8.5,8.5 0 0 0 -1.55,1.73 3.32,3.32 0 0 0 -0.29,1.59 v 1.69 l -0.05,1.76 c 0,0.14 0,1.15 0.07,3 v 1.54 l 0.05,1.69 a 2.4,2.4 0 0 0 0.07,0.52 l 3.4,0.82 a 7,7 0 0 1 0.8,0.3 l 0.07,0.27 a 1.11,1.11 0 0 1 -0.12,0.4 c -0.46,0 -0.82,0 -1.06,0 h -1.88 -4.16 L 346,128 h -0.72 v -0.17 a 1,1 0 0 1 0.14,-0.56 z"
         id="path889" />
      <path
         class="cls-1"
         d="m 388.86,115.12 -9.69,0.07 h -1.83 c -0.74,0 -1.5,0 -2.27,0.1 a 4,4 0 0 0 -0.22,1 v 0.24 0.24 1.19 a 9.45,9.45 0 0 0 0.93,3.61 7.11,7.11 0 0 0 2.66,3.26 8.19,8.19 0 0 0 4.31,1.2 8.84,8.84 0 0 0 2.2,-0.34 11.43,11.43 0 0 0 2.32,-1.23 L 389,123 l 0.14,1 c 0,0.11 0,0.23 0,0.36 a 10.7,10.7 0 0 1 -2.76,2.42 13,13 0 0 1 -3.38,1.52 12.09,12.09 0 0 1 -2.71,0.22 8.78,8.78 0 0 1 -3.38,-0.7 8.3,8.3 0 0 1 -3.88,-3.42 11,11 0 0 1 -1.41,-5.72 12,12 0 0 1 0.4,-2.73 13.94,13.94 0 0 1 1.44,-3.55 6.88,6.88 0 0 1 1.71,-2.1 10.88,10.88 0 0 1 2.54,-1.62 9.36,9.36 0 0 1 3.65,-0.65 7.17,7.17 0 0 1 6.56,3.62 6.61,6.61 0 0 1 0.95,3.14 z m -13.48,-0.87 h 1.14 q 1.23,0 7.34,-0.39 a 3,3 0 0 0 1.19,-0.19 1.29,1.29 0 0 0 0.43,-0.82 3.91,3.91 0 0 0 -0.48,-1.71 3.41,3.41 0 0 0 -1.49,-1.47 5,5 0 0 0 -2.33,-0.52 5.49,5.49 0 0 0 -4.5,2.1 4.88,4.88 0 0 0 -1.3,3 z"
         id="path891" />
      <path
         class="cls-1"
         d="m 391.3,127.06 a 2.58,2.58 0 0 1 1.07,-0.37 4.64,4.64 0 0 0 1.49,-0.38 1.75,1.75 0 0 0 0.58,-1 54.27,54.27 0 0 0 0.17,-6.12 42.26,42.26 0 0 0 -0.31,-6.64 4.32,4.32 0 0 0 -1.38,-0.53 q -0.27,0 -1.11,-0.27 v -0.81 a 7.36,7.36 0 0 0 2.32,-1.06 16,16 0 0 0 2.46,-2.62 h 0.15 0.46 a 0.59,0.59 0 0 1 0.31,0.13 v 2.75 c 0,0.56 0,1.17 0.05,1.81 a 18.88,18.88 0 0 1 4.63,-3.28 7.59,7.59 0 0 1 3.16,-0.63 6.08,6.08 0 0 1 3.33,0.79 7.76,7.76 0 0 1 2.34,2.88 15.12,15.12 0 0 1 3.9,-3 8,8 0 0 1 3.54,-0.85 6,6 0 0 1 4.45,1.77 7.46,7.46 0 0 1 1.76,5.25 v 2 2.2 5.66 a 2.1,2.1 0 0 0 0.43,1.5 c 0.13,0.05 0.62,0.19 1.48,0.43 a 3.73,3.73 0 0 1 0.94,0.34 0.42,0.42 0 0 1 0.14,0.34 1.64,1.64 0 0 1 -0.14,0.63 h -0.17 l -2.43,-0.14 q -0.43,0 -1.38,0 c -0.77,0 -1.84,0 -3.23,0.1 h -1.23 -1 a 2.77,2.77 0 0 1 0,-0.39 1.11,1.11 0 0 1 0.17,-0.48 7.59,7.59 0 0 1 1.79,-0.47 c 0.76,-0.12 1.23,-0.34 1.41,-0.65 a 12.6,12.6 0 0 0 0.28,-3.77 c 0,-4.75 0,-7.51 -0.17,-8.27 a 4.37,4.37 0 0 0 -1.54,-2.84 4.72,4.72 0 0 0 -3.13,-1 5.82,5.82 0 0 0 -2.84,0.76 10.44,10.44 0 0 0 -2.71,2.28 v 0.58 3.7 l -0.1,2.87 c 0,2.94 0,4.6 0.09,5 a 1.33,1.33 0 0 0 0.41,0.88 4.72,4.72 0 0 0 1.89,0.49 10.6,10.6 0 0 1 1.09,0.2 0.78,0.78 0 0 1 0.29,0.62 0.45,0.45 0 0 1 -0.22,0.44 h -0.41 -1.21 -7 -1.93 a 5.17,5.17 0 0 1 -0.05,-0.53 v -0.29 a 7.2,7.2 0 0 1 2,-0.56 8.6,8.6 0 0 0 1.54,-0.41 0.7,0.7 0 0 0 0.22,-0.31 9.24,9.24 0 0 0 0.17,-1.94 l 0.12,-2.8 -0.05,-3.16 v -1.77 a 6.5,6.5 0 0 0 -1.21,-4.34 3.86,3.86 0 0 0 -3,-1.36 7.65,7.65 0 0 0 -3.43,0.85 8.21,8.21 0 0 0 -2.86,2.27 c 0,0.45 0,0.86 0,1.23 l 0.09,8.12 a 8.34,8.34 0 0 0 0.31,3 1.89,1.89 0 0 0 1.24,0.52 5.44,5.44 0 0 1 2,0.53 0.5,0.5 0 0 1 0.21,0.44 c 0,0.12 0,0.28 0,0.46 -1.84,-0.13 -3.08,-0.2 -3.71,-0.2 -0.63,0 -1.22,0 -1.74,0 l -1.21,0.07 H 394 l -2.72,0.1 a 1.16,1.16 0 0 1 0,-0.28 2.47,2.47 0 0 1 0.02,-0.47 z"
         id="path893" />
      <path
         class="cls-1"
         d="m 448.13,124.59 a 1.24,1.24 0 0 1 0.15,0.46 3.06,3.06 0 0 1 -0.58,1.28 5.31,5.31 0 0 1 -1.7,1.77 3,3 0 0 1 -1.59,0.36 3.18,3.18 0 0 1 -2.61,-1.07 4.36,4.36 0 0 1 -0.75,-2.24 l -2.68,1.85 a 10.69,10.69 0 0 1 -2.17,1 11.62,11.62 0 0 1 -2.9,0.32 2.61,2.61 0 0 1 -1.95,-0.74 2.65,2.65 0 0 1 -0.71,-1.9 q 0,-1.66 2.05,-4 a 15,15 0 0 1 5.55,-3.79 c 1.65,-0.69 2.66,-1.13 3,-1.33 0,-0.53 0.05,-1.11 0.05,-1.74 0,-2 -0.29,-3.43 -0.86,-4.15 a 2.93,2.93 0 0 0 -2.46,-1.09 4.62,4.62 0 0 0 -3.13,1.3 5.79,5.79 0 0 0 -1.35,3.1 5.32,5.32 0 0 1 -0.56,1.35 3.4,3.4 0 0 1 -1.67,0.68 1.61,1.61 0 0 1 -1,-0.32 0.48,0.48 0 0 1 -0.25,-0.38 8.26,8.26 0 0 1 1.35,-2.84 8.78,8.78 0 0 1 3.38,-3.31 7.69,7.69 0 0 1 3.56,-1.1 9.58,9.58 0 0 1 3.1,0.37 4.16,4.16 0 0 1 1.78,1.32 4.23,4.23 0 0 1 0.95,2 c 0.06,0.36 0.09,1.62 0.09,3.8 l -0.07,3.84 v 2.8 c 0,0.37 0,0.69 0,0.94 0,0.47 0,0.82 0,1 a 1.8,1.8 0 0 0 0.45,1.28 1.48,1.48 0 0 0 1.09,0.49 1.88,1.88 0 0 0 1.57,-0.92 l 0.29,-0.39 a 2.49,2.49 0 0 1 0.58,0 z m -7.07,-0.7 c 0.11,-2 0.16,-3.49 0.16,-4.32 0,-0.44 0,-1 -0.07,-1.77 a 16.84,16.84 0 0 0 -3.44,1.77 10.26,10.26 0 0 0 -2.89,2.73 3.75,3.75 0 0 0 -0.77,2.1 2.1,2.1 0 0 0 0.64,1.57 2.22,2.22 0 0 0 1.61,0.63 4.31,4.31 0 0 0 1.82,-0.53 12.33,12.33 0 0 0 2.94,-2.18 z"
         id="path895" />
      <path
         class="cls-1"
         d="m 455.51,104 h 0.74 l 0.1,2.29 -0.05,3 h 0.58 c 0.42,0 1.22,0 2.39,-0.1 0.76,0 1.49,-0.07 2.18,-0.07 h 1.45 c 0,0.32 0.05,0.58 0.05,0.77 a 5.13,5.13 0 0 1 -0.15,1 h -0.41 l -3.74,0.12 h -1.86 -0.44 a 4.56,4.56 0 0 0 -0.19,1.4 l 0.07,3.62 -0.05,6.38 a 5.87,5.87 0 0 0 0.65,3.34 2.21,2.21 0 0 0 1.89,0.84 14,14 0 0 0 2.37,-0.38 4.42,4.42 0 0 0 1.42,-0.8 h 0.22 a 0.45,0.45 0 0 1 0.48,0.48 v 0.17 a 6.31,6.31 0 0 1 -2.38,1.66 10.25,10.25 0 0 1 -3.57,0.52 4.4,4.4 0 0 1 -2.59,-0.73 3.16,3.16 0 0 1 -1.32,-1.71 20,20 0 0 1 -0.29,-4.33 l 0.1,-5.44 v -2.61 -1 c 0,-0.45 0,-0.91 -0.05,-1.36 h -0.41 l -2,0.07 h -0.19 a 0.58,0.58 0 0 1 -0.4,-0.12 0.39,0.39 0 0 1 -0.13,-0.29 0.65,0.65 0 0 1 0.18,-0.48 4.17,4.17 0 0 1 1.1,-0.56 5.67,5.67 0 0 0 1.46,-1 7.48,7.48 0 0 0 1.41,-1.63 13.65,13.65 0 0 0 0.83,-1.83 c 0.22,-0.47 0.42,-0.94 0.55,-1.22 z"
         id="path897" />
      <path
         class="cls-1"
         d="m 464.42,110.72 v -0.71 c 1.05,-0.31 1.62,-0.49 1.7,-0.53 a 8.16,8.16 0 0 0 1.82,-1.19 8.29,8.29 0 0 0 1.61,-1.8 3,3 0 0 1 0.46,0 h 0.29 c 0.06,0.77 0.09,1.34 0.09,1.69 0,0.08 0,0.44 -0.05,1.09 v 1.28 7 l -0.07,7.37 a 1.77,1.77 0 0 0 0.29,1.24 4.61,4.61 0 0 0 1.86,0.79 c 0.64,0.18 1.13,0.33 1.45,0.46 a 0.71,0.71 0 0 1 0.07,0.29 0.83,0.83 0 0 1 -0.12,0.36 c -0.63,0 -1.44,-0.06 -2.42,-0.12 -1.33,-0.11 -2.22,-0.17 -2.66,-0.17 l -3.86,0.12 c -0.49,0 -0.95,0.06 -1.4,0.12 a 1.6,1.6 0 0 1 -0.39,-0.07 0.53,0.53 0 0 1 -0.12,-0.29 c 0,-0.23 0.15,-0.4 0.46,-0.53 0.06,0 0.88,-0.22 2.46,-0.56 a 1.62,1.62 0 0 0 1,-0.48 2.6,2.6 0 0 0 0.41,-1.62 q 0,-1.86 0.05,-10.18 a 8.18,8.18 0 0 0 -0.15,-2.07 1.75,1.75 0 0 0 -0.64,-0.67 7,7 0 0 0 -2.14,-0.82 z m 2,-12.54 a 1.85,1.85 0 0 1 0.62,-1.38 2.1,2.1 0 0 1 1.48,-0.58 2.17,2.17 0 0 1 1.57,0.66 1.93,1.93 0 0 1 0.68,1.4 2,2 0 0 1 -0.68,1.41 2.18,2.18 0 0 1 -1.57,0.67 2.08,2.08 0 0 1 -1.5,-0.61 2.12,2.12 0 0 1 -0.57,-1.57 z"
         id="path899" />
      <path
         class="cls-1"
         d="m 493.66,123.46 v 1.57 a 11.57,11.57 0 0 1 -3.72,2.8 10.78,10.78 0 0 1 -4.32,0.8 8.69,8.69 0 0 1 -4.88,-1.42 9.07,9.07 0 0 1 -3.35,-4 12.22,12.22 0 0 1 -1.17,-5.07 10.12,10.12 0 0 1 1.41,-5.16 9,9 0 0 1 3.75,-3.62 12.7,12.7 0 0 1 5.86,-1.2 9.4,9.4 0 0 1 5.14,1.16 2,2 0 0 1 1,1.74 1.76,1.76 0 0 1 -0.5,1.28 1.78,1.78 0 0 1 -1.31,0.51 4,4 0 0 1 -2.66,-1.5 6.12,6.12 0 0 0 -1.62,-1.27 3.7,3.7 0 0 0 -1.62,-0.35 4.42,4.42 0 0 0 -3.57,1.76 9.89,9.89 0 0 0 -2,6.31 9.12,9.12 0 0 0 2,6.24 6.14,6.14 0 0 0 4.73,2.32 8.59,8.59 0 0 0 3.35,-0.62 14.16,14.16 0 0 0 3.48,-2.28 z"
         id="path901" />
      <path
         class="cls-1"
         d="m 514.61,124.59 a 1.38,1.38 0 0 1 0.14,0.46 3.06,3.06 0 0 1 -0.58,1.28 5.29,5.29 0 0 1 -1.66,1.77 3,3 0 0 1 -1.6,0.36 3.18,3.18 0 0 1 -2.61,-1.07 4.55,4.55 0 0 1 -0.75,-2.24 l -2.7,1.88 a 10.71,10.71 0 0 1 -2.18,1 11.56,11.56 0 0 1 -2.9,0.32 2.57,2.57 0 0 1 -1.94,-0.74 2.61,2.61 0 0 1 -0.72,-1.9 c 0,-1.11 0.69,-2.44 2.05,-4 a 15.1,15.1 0 0 1 5.56,-3.79 c 1.65,-0.69 2.66,-1.13 3,-1.33 0,-0.53 0.05,-1.11 0.05,-1.74 0,-2 -0.29,-3.43 -0.87,-4.15 a 2.93,2.93 0 0 0 -2.46,-1.09 4.6,4.6 0 0 0 -3.12,1.3 5.79,5.79 0 0 0 -1.36,3.1 5,5 0 0 1 -0.56,1.35 3.37,3.37 0 0 1 -1.66,0.68 1.61,1.61 0 0 1 -1,-0.32 0.47,0.47 0 0 1 -0.24,-0.38 8.36,8.36 0 0 1 1.34,-2.84 8.78,8.78 0 0 1 3.38,-3.31 7.69,7.69 0 0 1 3.57,-1.1 9.56,9.56 0 0 1 3.09,0.37 4.48,4.48 0 0 1 2.73,3.37 c 0.06,0.36 0.1,1.62 0.1,3.8 l -0.08,3.84 v 2.8 c 0,0.37 0,0.69 0,0.94 0,0.47 0,0.82 0,1 a 1.76,1.76 0 0 0 0.46,1.28 1.46,1.46 0 0 0 1.09,0.49 1.91,1.91 0 0 0 1.57,-0.92 l 0.29,-0.39 a 2.29,2.29 0 0 1 0.57,-0.08 z m -7.08,-0.7 c 0.11,-2 0.17,-3.49 0.17,-4.32 0,-0.44 0,-1 -0.07,-1.77 a 16.65,16.65 0 0 0 -3.45,1.77 10.21,10.21 0 0 0 -2.88,2.73 3.7,3.7 0 0 0 -0.78,2.1 2.13,2.13 0 0 0 0.64,1.57 2.22,2.22 0 0 0 1.62,0.63 4.27,4.27 0 0 0 1.81,-0.53 12.33,12.33 0 0 0 2.94,-2.18 z"
         id="path903" />
      <path
         class="cls-1"
         d="m 516.32,97.94 v -0.53 c 0.45,-0.15 0.95,-0.3 1.5,-0.46 l 3.6,-1.18 h 1.14 v 1.33 q 0,19.85 -0.12,23.67 c -0.05,1.5 -0.07,2.3 -0.07,2.39 a 10.46,10.46 0 0 0 0.21,3 c 0.2,0.29 0.79,0.49 1.78,0.6 a 6.13,6.13 0 0 1 1.75,0.34 0.34,0.34 0 0 1 0.19,0.34 0.53,0.53 0 0 1 -0.1,0.37 0.6,0.6 0 0 1 -0.4,0.11 l -2.54,-0.08 -3.17,-0.11 L 516,128 a 0.75,0.75 0 0 1 -0.58,-0.15 0.45,0.45 0 0 1 -0.14,-0.35 0.38,0.38 0 0 1 0.16,-0.35 8.29,8.29 0 0 1 1.74,-0.38 6.4,6.4 0 0 0 1.81,-0.45 1.24,1.24 0 0 0 0.3,-0.81 c 0.06,-0.58 0.1,-2.21 0.1,-4.9 v -5.56 l 0.08,-5.75 v -5.75 l 0.07,-2.83 a 2.23,2.23 0 0 0 -0.26,-1.22 2.68,2.68 0 0 0 -1.14,-0.74 c -0.9,-0.4 -1.49,-0.66 -1.82,-0.82 z"
         id="path905" />
      <path
         class="cls-1"
         d="m 558,98.06 c 0.13,1.06 0.19,1.68 0.19,1.84 l -0.09,2.15 a 14.76,14.76 0 0 1 -0.12,1.76 0.89,0.89 0 0 1 -0.36,0.1 h -0.22 a 8.77,8.77 0 0 0 -2.62,-4.93 6.82,6.82 0 0 0 -4.51,-1.55 6.61,6.61 0 0 0 -4.52,1.55 4.65,4.65 0 0 0 -1.76,3.6 4.11,4.11 0 0 0 1.23,2.88 q 1.23,1.31 6.31,3.9 a 40.48,40.48 0 0 1 5.53,3.27 8.5,8.5 0 0 1 2.51,2.94 8,8 0 0 1 0.85,3.72 9.42,9.42 0 0 1 -1.34,4.86 8.72,8.72 0 0 1 -3.62,3.43 13.45,13.45 0 0 1 -6,1.15 19,19 0 0 1 -6.26,-1 7,7 0 0 1 -2.15,-1 1.15,1.15 0 0 1 -0.39,-0.82 6.78,6.78 0 0 1 0,-0.68 43.41,43.41 0 0 0 0.36,-4.68 4.44,4.44 0 0 1 0.17,-1.33 0.38,0.38 0 0 1 0.36,-0.17 0.43,0.43 0 0 1 0.35,0.15 1.27,1.27 0 0 1 0.19,0.6 8.13,8.13 0 0 0 2.75,5.31 7.92,7.92 0 0 0 9.1,1.55 5.9,5.9 0 0 0 2.51,-2.31 5.64,5.64 0 0 0 0.91,-2.93 5.39,5.39 0 0 0 -1.38,-3.58 19.43,19.43 0 0 0 -5.53,-3.78 40.24,40.24 0 0 1 -5.42,-3.16 11.86,11.86 0 0 1 -3,-3.43 6.79,6.79 0 0 1 -0.75,-3.26 7.31,7.31 0 0 1 2.66,-5.69 10.45,10.45 0 0 1 7.13,-2.33 14.42,14.42 0 0 1 4.25,0.55 10.18,10.18 0 0 1 2.68,1.32 z"
         id="path907" />
      <path
         class="cls-1"
         d="m 581.78,123.46 v 1.57 a 11.7,11.7 0 0 1 -3.73,2.8 10.78,10.78 0 0 1 -4.32,0.8 8.71,8.71 0 0 1 -4.88,-1.42 9.07,9.07 0 0 1 -3.35,-4 12.22,12.22 0 0 1 -1.17,-5.07 10.12,10.12 0 0 1 1.41,-5.16 9.06,9.06 0 0 1 3.75,-3.62 12.73,12.73 0 0 1 5.86,-1.2 9.46,9.46 0 0 1 5.15,1.16 2,2 0 0 1 1,1.74 1.73,1.73 0 0 1 -0.51,1.28 1.76,1.76 0 0 1 -1.31,0.51 4,4 0 0 1 -2.65,-1.5 6.46,6.46 0 0 0 -1.62,-1.27 3.77,3.77 0 0 0 -1.62,-0.35 4.43,4.43 0 0 0 -3.58,1.76 9.89,9.89 0 0 0 -2,6.31 9.17,9.17 0 0 0 2,6.24 6.15,6.15 0 0 0 4.74,2.32 8.54,8.54 0 0 0 3.34,-0.62 13.79,13.79 0 0 0 3.49,-2.28 z"
         id="path909" />
      <path
         class="cls-1"
         d="m 584.49,110.72 v -0.71 c 1,-0.31 1.61,-0.49 1.69,-0.53 a 8.2,8.2 0 0 0 1.83,-1.19 8.56,8.56 0 0 0 1.61,-1.8 2.93,2.93 0 0 1 0.45,0 h 0.29 c 0.07,0.77 0.1,1.34 0.1,1.69 0,0.08 0,0.44 -0.05,1.09 v 1.28 7 l -0.08,7.37 a 1.83,1.83 0 0 0 0.29,1.24 4.61,4.61 0 0 0 1.86,0.79 14.42,14.42 0 0 1 1.45,0.46 0.75,0.75 0 0 1 0.08,0.29 0.83,0.83 0 0 1 -0.12,0.36 c -0.63,0 -1.44,-0.06 -2.42,-0.12 -1.34,-0.11 -2.22,-0.17 -2.66,-0.17 l -3.86,0.12 c -0.49,0 -1,0.06 -1.41,0.12 a 1.54,1.54 0 0 1 -0.38,-0.07 0.53,0.53 0 0 1 -0.12,-0.29 c 0,-0.23 0.15,-0.4 0.46,-0.53 0.06,0 0.88,-0.22 2.46,-0.56 a 1.62,1.62 0 0 0 1,-0.48 2.6,2.6 0 0 0 0.41,-1.62 q 0,-1.86 0,-10.18 a 8.18,8.18 0 0 0 -0.15,-2.07 1.75,1.75 0 0 0 -0.64,-0.67 7.09,7.09 0 0 0 -2.09,-0.82 z m 2,-12.54 a 1.84,1.84 0 0 1 0.61,-1.38 2.14,2.14 0 0 1 1.49,-0.58 2.17,2.17 0 0 1 1.57,0.66 1.93,1.93 0 0 1 0.68,1.4 2,2 0 0 1 -0.68,1.41 2.18,2.18 0 0 1 -1.57,0.67 2.06,2.06 0 0 1 -1.5,-0.61 2.12,2.12 0 0 1 -0.57,-1.57 z"
         id="path911" />
      <path
         class="cls-1"
         d="m 613.56,115.12 -9.69,0.07 H 602 c -0.74,0 -1.5,0 -2.27,0.1 a 4,4 0 0 0 -0.22,1 v 0.24 0.24 1.19 a 9.45,9.45 0 0 0 0.93,3.61 7.17,7.17 0 0 0 2.66,3.26 8.19,8.19 0 0 0 4.31,1.2 8.84,8.84 0 0 0 2.2,-0.34 11.43,11.43 0 0 0 2.32,-1.23 l 1.77,-1.46 0.15,1 a 2.38,2.38 0 0 1 0,0.36 10.65,10.65 0 0 1 -2.75,2.42 13.15,13.15 0 0 1 -3.38,1.52 12.09,12.09 0 0 1 -2.71,0.22 8.75,8.75 0 0 1 -3.38,-0.7 8.21,8.21 0 0 1 -3.88,-3.42 11,11 0 0 1 -1.42,-5.72 12.6,12.6 0 0 1 0.4,-2.73 14.71,14.71 0 0 1 1.44,-3.55 6.91,6.91 0 0 1 1.72,-2.1 10.86,10.86 0 0 1 2.53,-1.62 9.4,9.4 0 0 1 3.58,-0.68 7.17,7.17 0 0 1 6.56,3.62 6.52,6.52 0 0 1 1,3.14 z m -13.49,-0.87 h 1.14 q 1.23,0 7.35,-0.39 a 3,3 0 0 0 1.18,-0.19 1.29,1.29 0 0 0 0.43,-0.82 3.91,3.91 0 0 0 -0.48,-1.71 3.39,3.39 0 0 0 -1.48,-1.47 5,5 0 0 0 -2.34,-0.52 5.47,5.47 0 0 0 -4.49,2.1 4.9,4.9 0 0 0 -1.31,3 z"
         id="path913" />
      <path
         class="cls-1"
         d="m 616,127.08 a 12.18,12.18 0 0 1 1.4,-0.29 4.11,4.11 0 0 0 1.82,-0.5 1.93,1.93 0 0 0 0.31,-1.33 v -0.87 c 0,-0.32 0,-0.73 0,-1.22 v -7.4 a 3.14,3.14 0 0 0 -0.39,-1.92 4.19,4.19 0 0 0 -2.41,-0.94 v -0.89 a 7.15,7.15 0 0 0 2.7,-1.26 8.51,8.51 0 0 0 2.32,-2.95 h 0.82 c 0.05,0.76 0.08,1.3 0.08,1.63 v 1.6 0.43 c 0.2,-0.13 0.42,-0.29 0.68,-0.48 a 15.89,15.89 0 0 1 3,-1.78 14.41,14.41 0 0 1 2.71,-1 6.7,6.7 0 0 1 1.69,-0.2 5.57,5.57 0 0 1 3.41,1.07 4.79,4.79 0 0 1 1.84,2.5 24,24 0 0 1 0.43,5.72 v 3.66 c 0,0.09 0,0.42 0,1 0,0.58 0,1.17 0,1.88 a 9.23,9.23 0 0 0 0.15,2.16 1.38,1.38 0 0 0 0.63,0.62 c 1.54,0.21 2.45,0.46 2.7,0.76 v 0.19 a 1.59,1.59 0 0 1 -0.14,0.6 h -0.46 l -3.19,-0.05 -3.14,0.08 q -1.74,0 -3.21,0 l -0.15,-0.51 a 0.79,0.79 0 0 1 0.17,-0.38 5.78,5.78 0 0 1 1.84,-0.39 4.19,4.19 0 0 0 1,-0.14 2.83,2.83 0 0 0 0.65,-0.39 2.2,2.2 0 0 0 0.29,-1 c 0,-0.11 0,-0.34 0,-0.68 -0.05,-0.74 -0.09,-2.59 -0.1,-5.54 v -1.26 -1.93 c 0,-2.08 -0.42,-3.52 -1.26,-4.31 a 4.71,4.71 0 0 0 -3.36,-1.19 7.4,7.4 0 0 0 -3.16,0.72 10.69,10.69 0 0 0 -3,2.14 c 0,0.77 0,1.43 0,2 l 0.07,5.34 c 0,2.78 0,4.49 0.13,5.12 a 0.93,0.93 0 0 0 0.17,0.53 1.6,1.6 0 0 0 0.77,0.32 c 0.38,0.08 0.83,0.19 1.34,0.33 0.51,0.14 0.84,0.24 1,0.27 a 0.9,0.9 0 0 1 0.65,0.48 v 0.49 H 624 l -5.22,-0.08 h -2.29 -0.61 v -0.32 a 2.18,2.18 0 0 1 0.12,-0.44 z"
         id="path915" />
      <path
         class="cls-1"
         d="m 659.59,123.46 v 1.57 a 11.57,11.57 0 0 1 -3.72,2.8 10.78,10.78 0 0 1 -4.32,0.8 8.67,8.67 0 0 1 -4.88,-1.42 9.07,9.07 0 0 1 -3.35,-4 12.22,12.22 0 0 1 -1.17,-5.07 10.12,10.12 0 0 1 1.41,-5.16 9,9 0 0 1 3.75,-3.62 12.7,12.7 0 0 1 5.86,-1.2 9.4,9.4 0 0 1 5.14,1.16 2,2 0 0 1 1,1.74 1.74,1.74 0 0 1 -1.81,1.79 4,4 0 0 1 -2.66,-1.5 6.12,6.12 0 0 0 -1.62,-1.27 3.7,3.7 0 0 0 -1.62,-0.35 4.42,4.42 0 0 0 -3.57,1.76 9.89,9.89 0 0 0 -2,6.31 9.12,9.12 0 0 0 2,6.24 6.14,6.14 0 0 0 4.73,2.32 8.59,8.59 0 0 0 3.35,-0.62 14.16,14.16 0 0 0 3.48,-2.28 z"
         id="path917" />
      <path
         class="cls-1"
         d="m 680,115.12 -9.69,0.07 h -1.81 c -0.74,0 -1.49,0 -2.27,0.1 a 4.32,4.32 0 0 0 -0.21,1 v 0.24 0.24 1.19 a 9.41,9.41 0 0 0 0.92,3.61 7.23,7.23 0 0 0 2.66,3.26 8.23,8.23 0 0 0 4.32,1.2 8.92,8.92 0 0 0 2.2,-0.34 11.41,11.41 0 0 0 2.31,-1.23 l 1.74,-1.43 0.15,1 a 2.38,2.38 0 0 1 0,0.36 10.65,10.65 0 0 1 -2.75,2.42 13.15,13.15 0 0 1 -3.38,1.52 12.09,12.09 0 0 1 -2.71,0.22 8.78,8.78 0 0 1 -3.38,-0.7 8.26,8.26 0 0 1 -3.88,-3.42 11,11 0 0 1 -1.41,-5.72 12,12 0 0 1 0.4,-2.73 14.26,14.26 0 0 1 1.43,-3.55 6.91,6.91 0 0 1 1.72,-2.1 10.88,10.88 0 0 1 2.54,-1.62 9.33,9.33 0 0 1 3.65,-0.65 7.17,7.17 0 0 1 6.56,3.62 6.61,6.61 0 0 1 0.95,3.14 z m -13.48,-0.87 h 1.13 q 1.23,0 7.35,-0.39 a 2.94,2.94 0 0 0 1.18,-0.19 1.31,1.31 0 0 0 0.44,-0.82 3.8,3.8 0 0 0 -0.49,-1.71 3.34,3.34 0 0 0 -1.48,-1.47 5,5 0 0 0 -2.33,-0.52 5.49,5.49 0 0 0 -4.5,2.1 4.88,4.88 0 0 0 -1.27,3 z"
         id="path919" />
      <path
         class="cls-1"
         d="m 685,121.74 a 17.94,17.94 0 0 0 1.36,3 6.79,6.79 0 0 0 2.2,2.14 5.3,5.3 0 0 0 2.77,0.76 4.14,4.14 0 0 0 2.73,-1.18 2.75,2.75 0 0 0 1,-2.08 4.4,4.4 0 0 0 -1.13,-2.9 11,11 0 0 0 -4.32,-2.5 10.06,10.06 0 0 1 -4.26,-2.55 4.76,4.76 0 0 1 -1.09,-3.09 4.91,4.91 0 0 1 0.89,-2.9 5.51,5.51 0 0 1 2.47,-1.9 7.67,7.67 0 0 1 2.9,-0.64 16,16 0 0 1 3.08,0.27 7.8,7.8 0 0 1 2.36,0.82 c 0.12,0.82 0.23,2 0.31,3.62 v 0.78 h -0.53 -0.34 a 7,7 0 0 0 -2.21,-3.18 4.76,4.76 0 0 0 -2.94,-1.17 3.16,3.16 0 0 0 -2.34,0.88 3.1,3.1 0 0 0 -0.9,2.31 2.88,2.88 0 0 0 0.73,1.93 9.47,9.47 0 0 0 3.39,1.93 17.57,17.57 0 0 1 3.89,2 5.62,5.62 0 0 1 1.8,2.27 6.26,6.26 0 0 1 0.58,2.54 5,5 0 0 1 -1.1,3.12 6,6 0 0 1 -2.75,2 9,9 0 0 1 -3,0.59 13.81,13.81 0 0 1 -5.65,-1.14 0.9,0.9 0 0 1 -0.27,-0.72 c 0,-0.14 0,-0.38 0,-0.7 q -0.39,-3.25 -0.39,-3.87 c 0,-0.19 0,-0.32 0.13,-0.38 a 1.14,1.14 0 0 1 0.63,-0.06 z"
         id="path921" />
      <circle
         class="cls-1"
         cx="139.28"
         cy="33.189999"
         r="4.4000001"
         id="circle923" />
      <circle
         class="cls-1"
         cx="8.8699999"
         cy="108.46"
         r="4.4000001"
         id="circle925" />
      <circle
         class="cls-1"
         cx="125.17"
         cy="21.26"
         r="5.3699999"
         id="circle927" />
      <circle
         class="cls-1"
         cx="106.43"
         cy="12.23"
         r="6.54"
         id="circle929" />
      <circle
         class="cls-1"
         cx="83.169998"
         cy="8.3400002"
         r="8.3400002"
         id="circle931" />
      <circle
         class="cls-1"
         cx="56.82"
         cy="12.43"
         r="9.7399998"
         id="circle933" />
      <circle
         class="cls-1"
         cx="5.3699999"
         cy="89.989998"
         r="5.3699999"
         id="circle935" />
      <circle
         class="cls-1"
         cx="6.8600001"
         cy="69.5"
         r="6.54"
         id="circle937" />
      <circle
         class="cls-1"
         cx="15.28"
         cy="47.290001"
         r="8.3400002"
         id="circle939" />
      <circle
         class="cls-1"
         cx="32.43"
         cy="26.65"
         r="9.7399998"
         id="circle941" />
      <path
         class="cls-2"
         d="m 39.3,146.25 a 4.12,4.12 0 0 1 -0.28,0.53 c -0.21,0.34 -0.38,0.6 -0.51,0.77 l -0.16,0.17 H 38.3 l -0.32,-0.28 v 0 a 3.21,3.21 0 0 0 0.23,-1.13 1.41,1.41 0 0 0 -0.54,-1 1.29,1.29 0 0 0 -0.89,-0.31 0.94,0.94 0 0 0 -0.71,0.38 1,1 0 0 0 -0.18,0.76 3.32,3.32 0 0 0 0.69,1.36 7.56,7.56 0 0 1 0.47,0.78 2.35,2.35 0 0 1 0.29,0.86 2.06,2.06 0 0 1 0,0.84 2.32,2.32 0 0 1 -0.4,0.73 3,3 0 0 1 -0.82,0.72 1.58,1.58 0 0 1 -0.6,0.2 3.67,3.67 0 0 1 -0.67,0 2.54,2.54 0 0 1 -0.8,-0.2 3.72,3.72 0 0 1 -0.86,-0.53 4.82,4.82 0 0 1 -0.69,-0.68 l -0.42,-0.58 a 1,1 0 0 1 -0.2,-0.34 0.17,0.17 0 0 1 0,-0.11 v -0.05 l 0.46,-0.65 c 0.15,-0.2 0.25,-0.34 0.32,-0.42 l 0.13,-0.18 0.43,0.32 c -0.11,0.45 -0.18,0.73 -0.19,0.83 a 2.09,2.09 0 0 0 0,0.62 1.74,1.74 0 0 0 0.23,0.55 2,2 0 0 0 0.45,0.48 2,2 0 0 0 0.63,0.31 1.25,1.25 0 0 0 0.74,0 1.16,1.16 0 0 0 0.58,-0.38 1,1 0 0 0 0.16,-0.87 4.4,4.4 0 0 0 -0.66,-1.27 6,6 0 0 1 -0.75,-1.43 2,2 0 0 1 0,-1 2,2 0 0 1 0.39,-0.89 2.06,2.06 0 0 1 1.47,-0.83 2.68,2.68 0 0 1 1.93,0.67 6,6 0 0 1 0.59,0.58 6.6,6.6 0 0 1 0.51,0.67 z"
         id="path943" />
      <path
         class="cls-2"
         d="m 40.76,156 0.21,-0.36 0.37,0.1 a 3.14,3.14 0 0 0 0.58,0.12 1.07,1.07 0 0 0 0.34,-0.38 l 0.33,-0.59 0.67,-1.14 0.15,-0.27 0.63,-1 0.37,-0.67 0.17,-0.26 0.3,-0.58 0.12,-0.22 0.06,-0.18 a 2,2 0 0 0 -0.6,-0.51 l -0.17,-0.11 0.25,-0.45 1.39,0.88 c 0.18,0.11 0.28,0.18 0.33,0.2 0.05,0.02 0.51,0.29 1,0.51 l 0.48,0.23 a 1.31,1.31 0 0 1 -0.09,0.17 1.86,1.86 0 0 1 -0.14,0.21 c -0.15,0 -0.33,-0.07 -0.53,-0.13 a 3.42,3.42 0 0 0 -0.49,-0.12 3,3 0 0 0 -0.25,0.36 c -0.08,0.14 -0.14,0.26 -0.19,0.36 l -0.76,1.29 -0.75,1.32 -0.42,0.66 -0.55,1 -0.13,0.18 a 0.86,0.86 0 0 0 0,0.13 5.35,5.35 0 0 0 0.5,0.41 l 0.28,0.22 c 0,0.1 -0.09,0.19 -0.13,0.26 l -0.1,0.16 -0.1,-0.05 -0.19,-0.1 a 0.49,0.49 0 0 1 -0.12,-0.08 L 42.95,157.11 42,156.6 c -0.18,-0.1 -0.45,-0.23 -0.8,-0.39 z"
         id="path945" />
      <path
         class="cls-2"
         d="m 52,154.18 0.12,-0.39 0.46,0.18 0.16,0.05 0.45,0.15 0.38,0.16 h 0.11 l 0.34,0.12 0.34,0.11 0.16,0.07 c 0.37,0.71 0.66,1.32 0.87,1.81 0.21,0.49 1,2.25 2.37,5.26 L 57.82,161.56 58,161 c 0.13,-0.37 0.22,-0.67 0.29,-0.89 0.07,-0.22 0.15,-0.48 0.25,-0.78 0.1,-0.3 0.2,-0.57 0.27,-0.82 l 0.24,-0.84 a 0.76,0.76 0 0 0 0.09,-0.45 1,1 0 0 0 -0.45,-0.37 1.64,1.64 0 0 1 -0.4,-0.3 l 0.13,-0.31 h 0.15 l 1.07,0.37 1.2,0.42 0.23,0.08 -0.13,0.35 a 0.71,0.71 0 0 1 -0.29,0 2.21,2.21 0 0 0 -0.44,0 2.27,2.27 0 0 0 -0.37,0.07 0.31,0.31 0 0 0 -0.12,0.19 1.53,1.53 0 0 0 -0.08,0.23 c 0,0.06 -0.07,0.21 -0.16,0.45 -0.2,0.52 -0.34,0.94 -0.43,1.25 0,0.1 -0.06,0.21 -0.11,0.34 l -0.65,1.91 -0.1,0.29 -0.25,0.66 -0.09,0.29 -0.13,0.28 a 2.06,2.06 0 0 1 -0.08,0.27 l -0.11,0.29 -0.62,-0.21 -0.4,-0.91 -0.82,-1.79 -0.57,-1.27 -0.41,-0.94 c -0.28,-0.6 -0.53,-1.13 -0.77,-1.59 l -0.58,-1.13 -0.71,2 c 0,0.13 -0.09,0.25 -0.13,0.38 l -0.15,0.38 -0.24,0.72 q -0.15,0.45 -0.3,1 a 0.8,0.8 0 0 0 -0.05,0.2 1.19,1.19 0 0 0 0,0.19 3.73,3.73 0 0 0 0.88,0.46 l 0.12,0.09 -0.14,0.45 -0.21,-0.07 c -0.12,-0.05 -0.47,-0.21 -1.06,-0.5 l -1.16,-0.4 -0.32,-0.1 -0.17,-0.08 a 1.94,1.94 0 0 1 0.07,-0.22 1.6,1.6 0 0 1 0.08,-0.2 l 0.26,0.07 0.2,0.09 a 1.28,1.28 0 0 0 0.57,0.14 c 0.07,0 0.15,-0.14 0.23,-0.33 0.24,-0.56 0.38,-0.91 0.43,-1 l 0.11,-0.3 0.68,-1.75 0.39,-1.1 a 3.47,3.47 0 0 0 0.25,-0.9 0.46,0.46 0 0 0 0,-0.26 1.34,1.34 0 0 0 -0.31,-0.45 4.09,4.09 0 0 0 -0.68,-0.47 z"
         id="path947" />
      <path
         class="cls-2"
         d="m 72.65,159.73 a 9.56,9.56 0 0 1 0.13,1 3.53,3.53 0 0 1 0,0.79 l -0.52,-0.09 a 4,4 0 0 0 -0.92,-1.32 2.68,2.68 0 0 0 -1.23,-0.57 1.78,1.78 0 0 0 -1.55,0.43 4.15,4.15 0 0 0 -1.2,2.46 4.94,4.94 0 0 0 -0.12,1.4 3.44,3.44 0 0 0 0.32,1.18 1.73,1.73 0 0 0 0.53,0.62 2.29,2.29 0 0 0 2.3,0.28 4.48,4.48 0 0 0 1.32,-1 3.35,3.35 0 0 1 0.56,0.06 4.43,4.43 0 0 1 -0.15,0.43 q 0,0.09 -0.27,0.69 l -0.08,0.16 -0.13,0.26 a 2.47,2.47 0 0 1 -1,0.22 8,8 0 0 1 -1.57,-0.15 5.84,5.84 0 0 1 -1.29,-0.37 3.19,3.19 0 0 1 -1,-0.6 4.08,4.08 0 0 1 -0.86,-1.07 3.37,3.37 0 0 1 -0.36,-1.14 4.37,4.37 0 0 1 0,-1.29 3.83,3.83 0 0 1 1.62,-2.59 4,4 0 0 1 3,-0.59 11,11 0 0 1 1.31,0.31 7.69,7.69 0 0 1 1.16,0.49 z"
         id="path949" />
      <path
         class="cls-2"
         d="m 78.24,160.21 0.57,0.06 a 6.51,6.51 0 0 0 1,0.07 h 1.07 c 0.86,0 1.63,0 2.32,0 h 1 a 9.38,9.38 0 0 1 1,0.1 0.43,0.43 0 0 1 0.1,0.31 v 1.43 c 0,0 0,0 0,0.1 H 85 c 0,-0.08 -0.08,-0.2 -0.14,-0.35 l -0.23,-0.41 a 2.26,2.26 0 0 0 -0.36,-0.53 1.27,1.27 0 0 0 -0.37,-0.05 h -0.35 a 10.39,10.39 0 0 0 -1.15,-0.06 h -1.26 q 0,0.15 0,1.14 v 1.7 h 0.25 c 0.69,0 1.18,0 1.48,0 a 1.48,1.48 0 0 0 0.54,-0.11 0.65,0.65 0 0 0 0.19,-0.25 c 0,-0.08 0.1,-0.37 0.21,-0.85 h 0.41 c 0,0.34 0,0.6 0,0.78 0,0.4 0,0.66 0,0.77 0,0.11 0,0.21 0,0.28 0,0.07 0,0.27 0,0.49 0,0.22 0,0.4 0,0.52 v 0.12 h -0.41 c 0,-0.06 0,-0.19 -0.08,-0.38 a 2.23,2.23 0 0 0 -0.2,-0.67 0.4,0.4 0 0 0 -0.23,-0.16 4.85,4.85 0 0 0 -0.86,-0.05 c -0.58,0 -1,0 -1.31,0 v 0.19 c 0,0.46 0,0.84 0,1.14 v 1.25 a 0.3,0.3 0 0 0 0.15,0.3 4.8,4.8 0 0 0 1.45,0.14 7.47,7.47 0 0 0 1.36,-0.11 1.4,1.4 0 0 0 0.68,-0.38 3,3 0 0 0 0.67,-1.08 h 0.29 0.19 c 0,0.09 0,0.18 0,0.24 v 0.17 l -0.22,1.09 -0.1,0.66 H 85 l -1.72,-0.07 c -0.66,0 -1.45,-0.05 -2.38,-0.06 -0.46,0 -1,0 -1.7,0 h -0.25 -0.7 v -0.4 a 3,3 0 0 1 0.44,-0.06 2.89,2.89 0 0 0 0.83,-0.18 1.53,1.53 0 0 0 0.07,-0.42 c 0,-0.06 0,-0.18 0,-0.33 v -3 -0.92 -0.65 -0.72 c 0,0 0,-0.06 0,-0.12 a 0.3,0.3 0 0 0 -0.18,-0.08 h -0.17 a 3.68,3.68 0 0 0 -0.63,-0.09 h -0.26 z"
         id="path951" />
      <path
         class="cls-2"
         d="m 100.57,158 0.38,-0.11 h 0.18 l 0.36,-0.08 a 2.16,2.16 0 0 1 0.08,0.26 1.47,1.47 0 0 1 0,0.17 c 0,0.06 0.06,0.26 0.14,0.61 l 0.2,0.84 0.14,0.53 0.95,3.78 0.08,0.32 a 0.34,0.34 0 0 0 0.14,0.22 0.83,0.83 0 0 0 0.45,0 h 0.56 a 0.42,0.42 0 0 1 0,0.1 l 0.06,0.27 -0.24,0.06 c -0.17,0 -0.41,0.1 -0.73,0.16 l -0.39,0.08 -1,0.27 -0.15,0.05 h -0.1 -0.17 l -0.15,0.05 -0.28,0.06 -0.22,0.07 a 1.84,1.84 0 0 1 -0.06,-0.18 c 0,0 0,-0.11 0,-0.19 l 0.49,-0.25 a 1.49,1.49 0 0 0 0.46,-0.29 0.29,0.29 0 0 0 0,-0.24 l -0.1,-0.38 -0.08,-0.42 -0.22,-0.85 -0.06,-0.22 c 0,0 0,-0.14 -0.07,-0.34 -0.07,-0.2 0,-0.19 0,-0.27 0,-0.08 -0.06,-0.2 -0.13,-0.45 l -0.06,-0.32 c -0.08,-0.24 -0.12,-0.38 -0.13,-0.43 -0.01,-0.05 0,-0.11 0,-0.17 v -0.14 l -0.11,-0.38 v -0.17 c 0,-0.08 0,-0.19 -0.07,-0.32 -0.07,-0.13 -0.07,-0.28 -0.12,-0.46 -0.22,0.26 -0.47,0.53 -0.76,0.82 l -0.45,0.35 a 3.14,3.14 0 0 1 -0.33,-0.34 c 0.35,-0.31 0.58,-0.53 0.7,-0.66 a 8.74,8.74 0 0 0 0.6,-0.8 4.59,4.59 0 0 0 0.21,-0.61 z"
         id="path953" />
      <path
         class="cls-2"
         d="m 110.94,162.91 a 0.35,0.35 0 0 1 -0.16,-0.16 0.25,0.25 0 0 1 0,-0.17 c 0,0 0.09,-0.12 0.25,-0.27 a 4.34,4.34 0 0 0 0.76,-0.89 3,3 0 0 0 0.39,-1 3.26,3.26 0 0 0 0,-1.08 4.89,4.89 0 0 0 -0.19,-0.84 l -0.13,-0.49 a 6,6 0 0 0 -0.23,-0.67 4,4 0 0 0 -1.07,-1.75 0.82,0.82 0 0 0 -0.78,-0.14 0.8,0.8 0 0 0 -0.46,0.56 2.31,2.31 0 0 0 0.18,1.41 6.55,6.55 0 0 0 0.44,0.92 1.42,1.42 0 0 0 0.41,0.47 0.61,0.61 0 0 0 0.26,0.14 1,1 0 0 0 0.46,-0.07 0.76,0.76 0 0 0 0.26,-0.15 l 0.08,-0.05 a 0.15,0.15 0 0 1 0.14,0 0.24,0.24 0 0 1 0.13,0.16 0.27,0.27 0 0 1 -0.06,0.32 2.35,2.35 0 0 1 -0.7,0.43 1.6,1.6 0 0 1 -0.32,0.1 3.29,3.29 0 0 1 -0.74,0 2.26,2.26 0 0 1 -0.66,-0.27 1.71,1.71 0 0 1 -0.45,-0.44 3.69,3.69 0 0 1 -0.42,-0.75 2.66,2.66 0 0 1 -0.18,-1.3 2.09,2.09 0 0 1 0.47,-1.13 2.27,2.27 0 0 1 1,-0.7 2.31,2.31 0 0 1 2,0.11 3.58,3.58 0 0 1 1.57,2 5.15,5.15 0 0 1 0.33,1.66 9,9 0 0 1 -0.09,0.92 4.32,4.32 0 0 1 -0.47,1.36 4,4 0 0 1 -0.89,1.13 3.34,3.34 0 0 1 -0.91,0.6 z"
         id="path955" />
      <path
         class="cls-2"
         d="m 121.05,158.36 a 0.3,0.3 0 0 1 -0.18,-0.14 0.24,0.24 0 0 1 0,-0.16 1.2,1.2 0 0 1 0.22,-0.3 4.85,4.85 0 0 0 0.63,-1 3.09,3.09 0 0 0 0.24,-1 3,3 0 0 0 -0.13,-1.08 3.9,3.9 0 0 0 -0.3,-0.81 c 0,-0.06 -0.09,-0.22 -0.2,-0.46 a 4.22,4.22 0 0 0 -0.32,-0.64 4,4 0 0 0 -1.3,-1.58 0.78,0.78 0 0 0 -0.78,0 0.75,0.75 0 0 0 -0.38,0.62 2.26,2.26 0 0 0 0.36,1.36 6.41,6.41 0 0 0 0.57,0.86 1.42,1.42 0 0 0 0.47,0.41 0.68,0.68 0 0 0 0.28,0.1 1.25,1.25 0 0 0 0.44,-0.13 0.88,0.88 0 0 0 0.24,-0.19 l 0.07,-0.06 a 0.17,0.17 0 0 1 0.14,0 0.25,0.25 0 0 1 0.15,0.14 0.27,0.27 0 0 1 0,0.33 2.5,2.5 0 0 1 -0.63,0.52 1.92,1.92 0 0 1 -0.31,0.14 3.38,3.38 0 0 1 -0.74,0.08 2,2 0 0 1 -0.68,-0.18 1.84,1.84 0 0 1 -0.52,-0.37 3.22,3.22 0 0 1 -0.51,-0.7 2.55,2.55 0 0 1 -0.36,-1.25 2.08,2.08 0 0 1 0.31,-1.19 2.26,2.26 0 0 1 0.86,-0.82 2.31,2.31 0 0 1 2,-0.17 3.54,3.54 0 0 1 1.82,1.75 4.89,4.89 0 0 1 0.49,1.56 6.11,6.11 0 0 1 0,0.92 4.26,4.26 0 0 1 -0.28,1.42 4.08,4.08 0 0 1 -0.72,1.24 3.52,3.52 0 0 1 -0.82,0.72 z"
         id="path957" />
      <path
         class="cls-2"
         d="m 129.06,148.51 -0.12,-0.15 -0.11,-0.16 a 1.73,1.73 0 0 0 0.17,-0.2 1.91,1.91 0 0 1 0.52,-0.63 1.71,1.71 0 0 1 1.42,-0.33 2.27,2.27 0 0 1 1.4,0.95 2.39,2.39 0 0 1 0.54,1.79 2.45,2.45 0 0 1 -1.05,1.61 1.91,1.91 0 0 1 -0.86,0.39 2.27,2.27 0 0 1 -0.93,0 3.3,3.3 0 0 1 -0.88,-0.35 4,4 0 0 1 -1.11,-1 5,5 0 0 1 -0.7,-1.3 4.08,4.08 0 0 1 -0.25,-1.52 4.78,4.78 0 0 1 0.28,-1.43 6,6 0 0 1 0.53,-1.1 4.49,4.49 0 0 1 0.88,-1.09 0.18,0.18 0 0 1 0.14,0 0.29,0.29 0 0 1 0.15,0.11 0.55,0.55 0 0 1 0.1,0.18 3.51,3.51 0 0 1 -0.28,0.37 3.42,3.42 0 0 0 -0.76,2.45 4.06,4.06 0 0 0 0.46,1.43 8.85,8.85 0 0 0 0.82,1.32 7.6,7.6 0 0 0 0.95,1.06 1.37,1.37 0 0 0 0.78,0.39 0.77,0.77 0 0 0 0.51,-0.2 0.73,0.73 0 0 0 0.21,-0.23 1,1 0 0 0 0.12,-0.44 1.63,1.63 0 0 0 -0.19,-0.69 5,5 0 0 0 -0.43,-0.67 2.66,2.66 0 0 0 -1.1,-1 0.9,0.9 0 0 0 -0.82,0.13 1.93,1.93 0 0 0 -0.39,0.31 z"
         id="path959" />
      <path
         class="cls-3"
         d="m 171.54,116.79 12.5,-22 -3.31,-0.9 c -6.18,8.89 -11.75,10.39 -19.43,10.39 l -16.57,0.61 c 13.71,-7.38 45.34,-22.6 45.34,-41.73 0,-8.43 -6,-14.15 -16,-14.15 -10.24,0 -21.69,5.12 -30,16.87 l 2.41,3.76 c 8,-9.19 15.21,-11.6 20.63,-11.6 6,0 8.29,3 8.29,6.93 0,14.91 -31.18,34.49 -48.35,46.39 l 0.45,3.77 h 40.82 l -0.3,1.66 z"
         id="path961" />
      <path
         class="cls-3"
         d="M 245,63.77 256.45,45.39 H 253 c -4.22,4.22 -9.34,5 -17.47,5 h -23.02 l -25.15,39.13 1.95,3 c 20.34,-4.22 27.87,5 27.87,15.21 0,14.16 -14,31.33 -26.06,31.33 -9.79,0 -7.68,-12.05 -15.36,-12.05 -4.22,0 -6.48,2.11 -6.48,6.32 0,7.38 10.24,10.4 19,10.4 21.84,0 45.34,-18.08 45.34,-39.62 0,-13.85 -9.79,-25.45 -36.6,-22 l 12.05,-18.37 z"
         id="path963" />
      <path
         class="cls-1"
         d="m 51.56,71.46 c 0,0 -3.86,0.86 -5.19,1.12 -11.37,1.9 -9.92,8.42 -6.3,17.53 1.21,3.1 -2.81,3.69 -5.22,3.79 A 48,48 0 0 0 45,116 c 9.49,-31 6.56,-44.54 6.56,-44.54 z m 36.18,-7.78 -22.26,4.87 c 2.42,18.31 3.74,44.43 2.65,63 a 48.48,48.48 0 0 0 36.51,-3.33 C 93,102.22 87.74,63.68 87.74,63.68 Z M 82.33,37.21 a 48.17,48.17 0 0 0 -39.62,20.72 34.24,34.24 0 0 1 7.54,-2.06 c 13.29,-2.62 22,4 52.66,-2.29 a 49.37,49.37 0 0 0 11.67,-4 48,48 0 0 0 -32.25,-12.37 z m 38.77,19.56 -21.2,4.44 c 1.28,9.89 12.57,30.46 25.67,45.6 a 48.27,48.27 0 0 0 -4.47,-50 z"
         id="path965" />
    </g>
  </g>
</svg>
